<svg width="118" height="117" viewBox="0 0 118 117" fill="none" xmlns="http://www.w3.org/2000/svg">
<path fill-rule="evenodd" clip-rule="evenodd" d="M73.1254 34.034L82.8754 34.0337L82.8745 58.3426C82.8741 70.3557 83.7977 72.9279 87.749 72.9277C94.1076 72.9275 97.4991 69.9284 97.4995 58.342C97.5004 32.6264 84.5677 19.4483 58.5015 19.4492C41.6143 19.4519 26.6466 30.2934 21.42 46.3082C16.1934 62.3231 21.8954 79.8725 35.5464 89.7858C49.1974 99.699 67.6957 99.7237 81.3747 89.8469L87.0921 97.7228C69.9934 110.069 46.8705 110.038 29.8068 97.6463C12.743 85.2547 5.61544 63.318 12.1487 43.2994C18.682 23.2809 37.3916 9.72902 58.5012 9.72563C90.0004 9.72451 107.251 27.3021 107.25 58.3417C107.249 75.5761 99.2483 82.6509 87.7487 82.6513C81.1973 82.6515 77.4481 80.545 75.3899 75.8687C71.0086 80.0695 65.0559 82.6521 58.4985 82.6523C45.0366 82.6528 34.1239 71.7697 34.1244 58.3443C34.1248 44.9188 45.0383 34.035 58.5002 34.0345C63.9876 34.0343 69.0514 35.8425 73.1252 38.8941L73.1254 34.034ZM73.1244 58.3429C73.1241 66.3982 66.576 72.9285 58.4989 72.9288C50.4217 72.9291 43.8741 66.3992 43.8744 58.3439C43.8747 50.2887 50.4227 43.7584 58.4999 43.7581C66.5771 43.7578 73.1247 50.2877 73.1244 58.3429Z" fill="#E1E2E6"/>
</svg>
