<svg width="118" height="117" viewBox="0 0 118 117" fill="none" xmlns="http://www.w3.org/2000/svg">
<path fill-rule="evenodd" clip-rule="evenodd" d="M48.8344 97.2557C48.8597 97.853 48.795 98.4358 48.6689 99.0257C48.4473 100.062 48.0193 101.159 47.4135 102.173C45.6915 105.054 42.7662 106.976 39 106.976C30.128 106.976 26.6461 102.636 22.2867 91.7662C19.3343 84.4045 17.9413 82.668 14.6259 82.6681L14.6262 72.9446C23.4982 72.9443 26.9801 77.2849 31.3395 88.1546C34.292 95.5163 35.6849 97.2527 39.0004 97.2526C39.0004 95.8419 38.9811 94.5923 38.9404 92.9C38.845 88.9338 38.834 88.1241 39.0075 87.0638C39.077 84.7492 39.6762 83.1068 40.8778 81.4767C29.9978 79.115 22.6598 74.2371 18.4483 66.325L16.8707 62.6248C15.3338 58.2196 14.6269 53.2281 14.6271 47.4635C14.6273 40.8245 16.6572 34.8883 20.4486 29.9261C19.2661 25.2095 19.4282 19.4468 22.0398 12.9386L22.8932 10.812L25.0807 10.1141C25.3736 10.0207 25.7297 9.93628 26.148 9.87079C30.4077 9.2039 36.4689 10.7945 44.3927 15.8561C49.0641 14.776 53.9834 14.2306 58.936 14.2304C63.3618 14.2303 67.7631 14.6751 71.9662 15.5522C79.6758 10.7371 85.5706 9.22684 89.7156 9.86939C90.1291 9.93349 90.4815 10.0162 90.772 10.1081L92.9731 10.8042L93.8273 12.9437C96.1116 18.6646 96.5034 23.9371 95.672 28.5505C100.03 33.7657 102.377 40.1772 102.377 47.4604C102.377 53.6005 101.936 58.2176 100.668 62.7093L99.3291 66.372C95.8255 74.276 88.0994 79.2091 76.1851 81.559C77.4234 83.269 78.0008 85.0048 78.0007 87.5277L78.0005 92.3894C78.0004 94.7455 78.0004 94.818 77.995 97.2512C78.006 97.426 78.0207 97.5115 78.0366 97.5648C78.0327 97.5662 78 106.975 78 106.975C73.8475 106.975 70.7601 104.955 69.2417 101.77C68.4544 100.118 68.2192 98.5409 68.2504 97.1825L68.2507 87.528C68.2507 87.1204 68.2365 87.0968 67.2411 86.1041C64.5804 83.4506 63.3759 81.4485 63.376 77.8046L63.3762 73.4066L67.7641 72.967C80.8256 71.6584 87.9295 68.0407 90.285 62.756L91.3858 59.7551C92.2617 56.6174 92.6269 52.7962 92.6271 47.4607C92.6273 41.7915 90.6429 37.1083 86.8897 33.3668L84.8267 31.3102L85.6688 28.525C86.4169 26.0506 86.5948 23.1227 85.8036 19.7832C85.6721 19.8164 85.5354 19.8527 85.3935 19.892C82.7832 20.6169 79.5241 22.1721 75.5968 24.7902L73.8056 25.9843L71.7144 25.4673C67.6698 24.4672 63.3236 23.9538 58.9357 23.954C54.0563 23.9542 49.2329 24.5735 44.7771 25.7851L42.6026 26.3763L40.7424 25.1073C36.6807 22.3363 33.3064 20.6884 30.6006 19.9187C30.4074 19.8637 30.2234 19.8146 30.0485 19.7707C29.1044 23.6358 29.4776 26.8112 30.4336 29.194L31.5799 32.051L29.4811 34.3069C26.1368 37.9018 24.3773 42.2763 24.3771 47.4632C24.3769 52.2119 24.9342 56.1469 25.9556 59.1109L27.2312 62.1224C30.4201 68.0903 37.1936 71.6804 49.2708 72.971L53.6262 73.4365L53.626 77.805C53.6259 81.4488 52.4213 83.451 49.7604 86.1047C48.7649 87.0975 48.7507 87.1211 48.7507 87.5287L48.6666 88.4275C48.611 88.7223 48.611 89.4834 48.6876 92.6661C48.7228 94.1299 48.7428 95.2885 48.7486 96.4992C48.8068 96.7498 48.8156 96.9115 48.8344 97.2557Z" fill="#E1E2E6"/>
</svg>
