<svg width="117" height="115" viewBox="0 0 117 115" fill="none" xmlns="http://www.w3.org/2000/svg">
<path fill-rule="evenodd" clip-rule="evenodd" d="M19.5 9.58334H97.5C102.885 9.58334 107.25 13.8739 107.25 19.1667V95.8334C107.25 101.126 102.885 105.417 97.5 105.417H19.5C14.1152 105.417 9.75 101.126 9.75 95.8334V19.1667C9.75 13.8739 14.1152 9.58334 19.5 9.58334ZM19.5 19.1667V95.8334H97.5V19.1667H19.5ZM63.375 43.125C60.8512 43.125 58.1846 43.8833 55.829 45.2916L53.625 43.125H48.75V76.6667H58.5V57.5C58.5 54.7415 61.3958 52.7083 63.375 52.7083H68.25C70.2292 52.7083 73.125 54.7415 73.125 57.5V76.6667H82.875V57.5C82.875 48.622 75.0458 43.125 68.25 43.125H63.375ZM39 38.3333C41.6924 38.3333 43.875 36.188 43.875 33.5417C43.875 30.8953 41.6924 28.75 39 28.75C36.3076 28.75 34.125 30.8953 34.125 33.5417C34.125 36.188 36.3076 38.3333 39 38.3333ZM34.125 43.125V76.6667H43.875V43.125H34.125Z" fill="#E1E2E6"/>
</svg>
