<svg width="186" height="53" viewBox="0 0 186 53" fill="none" xmlns="http://www.w3.org/2000/svg">
<g filter="url(#filter0_d)">
<path d="M24.845 38.94C27.2283 38.94 29.46 38.4417 31.54 37.445C33.62 36.4483 35.4617 35.0183 37.065 33.155L43.24 39.265C41.0733 41.8217 38.3 43.8583 34.92 45.375C31.5833 46.8917 28.1383 47.65 24.585 47.65C21.1617 47.65 17.955 47.0433 14.965 45.83C12.0183 44.6167 9.46167 42.97 7.295 40.89C5.12833 38.81 3.41667 36.34 2.16 33.48C0.946667 30.62 0.34 27.5433 0.34 24.25C0.34 20.9567 0.968334 17.88 2.225 15.02C3.48167 12.1167 5.19333 9.625 7.36 7.545C9.52667 5.465 12.0833 3.81833 15.03 2.605C18.02 1.39166 21.205 0.784998 24.585 0.784998C28.225 0.784998 31.7567 1.565 35.18 3.125C38.6033 4.64166 41.3767 6.7 43.5 9.3L37.13 15.605C35.5267 13.6117 33.6417 12.095 31.475 11.055C29.3083 9.97167 27.0117 9.43 24.585 9.43C22.5483 9.43 20.62 9.82 18.8 10.6C17.0233 11.3367 15.485 12.3767 14.185 13.72C12.885 15.02 11.8667 16.58 11.13 18.4C10.3933 20.1767 10.025 22.1267 10.025 24.25C10.025 26.33 10.3933 28.28 11.13 30.1C11.91 31.8767 12.95 33.415 14.25 34.715C15.5933 36.015 17.1533 37.055 18.93 37.835C20.75 38.5717 22.7217 38.94 24.845 38.94ZM155.903 43.75L140.173 13.525V47H131.463V1.5H143.553L156.033 25.94L168.513 1.5H180.603V47H171.698V13.59L155.903 43.75Z" fill="#EEEEEE"/>
<path d="M75.0103 43.1L52.5853 24.445L75.0753 5.66L79.5603 10.86L62.9203 24.315L79.6903 37.77L75.0103 43.1ZM96.9965 5.66L119.422 24.315L96.9315 43.1L92.4465 37.9L109.087 24.445L92.3165 10.99L96.9965 5.66Z" fill="#D798DA"/>
</g>
<defs>
<filter id="filter0_d" x="0.339966" y="0.784973" width="185.263" height="51.865" filterUnits="userSpaceOnUse" color-interpolation-filters="sRGB">
<feFlood flood-opacity="0" result="BackgroundImageFix"/>
<feColorMatrix in="SourceAlpha" type="matrix" values="0 0 0 0 0 0 0 0 0 0 0 0 0 0 0 0 0 0 127 0"/>
<feOffset dx="4" dy="4"/>
<feGaussianBlur stdDeviation="0.5"/>
<feColorMatrix type="matrix" values="0 0 0 0 0 0 0 0 0 0 0 0 0 0 0 0 0 0 0.3 0"/>
<feBlend mode="normal" in2="BackgroundImageFix" result="effect1_dropShadow"/>
<feBlend mode="normal" in="SourceGraphic" in2="effect1_dropShadow" result="shape"/>
</filter>
</defs>
</svg>
