<svg width="189" height="56" viewBox="0 0 189 56" fill="none" xmlns="http://www.w3.org/2000/svg">
<g filter="url(#filter0_d)">
<path d="M28.845 38.94C31.2283 38.94 33.46 38.4417 35.54 37.445C37.62 36.4483 39.4617 35.0183 41.065 33.155L47.24 39.265C45.0733 41.8217 42.3 43.8583 38.92 45.375C35.5833 46.8917 32.1383 47.65 28.585 47.65C25.1617 47.65 21.955 47.0433 18.965 45.83C16.0183 44.6167 13.4617 42.97 11.295 40.89C9.12833 38.81 7.41667 36.34 6.16 33.48C4.94667 30.62 4.34 27.5433 4.34 24.25C4.34 20.9567 4.96833 17.88 6.225 15.02C7.48167 12.1167 9.19333 9.625 11.36 7.545C13.5267 5.465 16.0833 3.81833 19.03 2.605C22.02 1.39166 25.205 0.784998 28.585 0.784998C32.225 0.784998 35.7567 1.565 39.18 3.125C42.6033 4.64166 45.3767 6.7 47.5 9.3L41.13 15.605C39.5267 13.6117 37.6417 12.095 35.475 11.055C33.3083 9.97167 31.0117 9.43 28.585 9.43C26.5483 9.43 24.62 9.82 22.8 10.6C21.0233 11.3367 19.485 12.3767 18.185 13.72C16.885 15.02 15.8667 16.58 15.13 18.4C14.3933 20.1767 14.025 22.1267 14.025 24.25C14.025 26.33 14.3933 28.28 15.13 30.1C15.91 31.8767 16.95 33.415 18.25 34.715C19.5933 36.015 21.1533 37.055 22.93 37.835C24.75 38.5717 26.7217 38.94 28.845 38.94ZM159.903 43.75L144.173 13.525V47H135.463V1.5H147.553L160.033 25.94L172.513 1.5H184.603V47H175.698V13.59L159.903 43.75Z" fill="#080808" fill-opacity="0.85"/>
<path d="M79.0103 43.1L56.5853 24.445L79.0753 5.66L83.5603 10.86L66.9203 24.315L83.6903 37.77L79.0103 43.1ZM100.997 5.66L123.422 24.315L100.932 43.1L96.4465 37.9L113.087 24.445L96.3165 10.99L100.997 5.66Z" fill="#D13399" fill-opacity="0.83"/>
</g>
<defs>
<filter id="filter0_d" x="0.339966" y="0.784973" width="188.263" height="54.865" filterUnits="userSpaceOnUse" color-interpolation-filters="sRGB">
<feFlood flood-opacity="0" result="BackgroundImageFix"/>
<feColorMatrix in="SourceAlpha" type="matrix" values="0 0 0 0 0 0 0 0 0 0 0 0 0 0 0 0 0 0 127 0"/>
<feOffset dy="4"/>
<feGaussianBlur stdDeviation="2"/>
<feColorMatrix type="matrix" values="0 0 0 0 0.566667 0 0 0 0 0.481667 0 0 0 0 0.481667 0 0 0 0.27 0"/>
<feBlend mode="normal" in2="BackgroundImageFix" result="effect1_dropShadow"/>
<feBlend mode="normal" in="SourceGraphic" in2="effect1_dropShadow" result="shape"/>
</filter>
</defs>
</svg>
