<svg width="252" height="218" viewBox="0 0 252 218" fill="none" xmlns="http://www.w3.org/2000/svg">
<path d="M228.013 129.049C210.37 132.368 193.794 141.484 177.83 153.918C180.575 139.107 182.21 124.845 168.762 118.058C187.106 115.379 189.06 113.762 204.335 100.429C205.612 113.247 218.587 120.269 228.013 129.049Z" fill="#B1A4D0"/>
<path opacity="0.2" d="M228.013 129.049C210.37 132.368 193.794 141.484 177.83 153.918C180.575 139.107 182.21 124.845 168.762 118.058C187.106 115.379 189.06 113.762 204.335 100.429C205.612 113.247 218.587 120.269 228.013 129.049Z" fill="#20ED0E"/>
<path d="M221.953 126.313C207.076 129.356 192.977 137.063 179.324 147.439C181.93 135.411 183.593 123.849 172.444 118.637C187.896 116.098 189.569 114.751 202.662 103.662C203.472 113.997 214.22 119.409 221.953 126.313Z" fill="#A4D0AE"/>
<path d="M210.059 114.907C213.93 112.989 214.611 106.476 211.58 100.359C208.549 94.2433 202.954 90.8403 199.083 92.7587C195.212 94.677 194.531 101.19 197.562 107.306C200.593 113.423 206.188 116.826 210.059 114.907Z" fill="#2F2E41"/>
<path d="M166.388 106.756L171.878 105.628L179.799 115.508L176.165 125.805L158.564 110.634L166.118 106.89L166.388 106.756Z" fill="#F4C48E"/>
<path d="M188.598 116.989C194.857 113.887 195.958 103.357 191.057 93.469C186.157 83.5809 177.111 78.0792 170.853 81.1807C164.594 84.2821 163.494 94.8123 168.394 104.7C173.294 114.588 182.34 120.09 188.598 116.989Z" fill="#F4C48E"/>
<path d="M84.8093 64.8831C84.8093 64.8831 59.6134 83.2104 54.3345 84.7646C49.0556 86.3187 46.4747 86.5358 46.4747 86.5358C46.4747 86.5358 46.6172 94.9609 49.7148 97.1426C51.4735 98.4128 53.2865 99.3136 55.065 99.801C55.065 99.801 57.399 97.0514 60.1912 97.2605C62.9834 97.4697 87.5836 92.1811 88.8257 85.1938C90.0678 78.2065 84.8093 64.8831 84.8093 64.8831Z" fill="#2F2E41"/>
<path d="M133.808 159.009C133.808 159.009 111.718 159.868 90.7346 125.664L89.0445 122.254C89.0445 122.254 90.381 133.94 90.1033 136.597C89.7813 139.677 94.9774 163.385 96.3035 165.383C97.6296 167.381 97.7823 168.367 97.7823 168.367L89.3243 170.966L87.423 167.129C87.423 167.129 81.7814 145.234 79.7274 140.411C77.6734 135.589 71.6297 97.9637 71.6297 97.9637C71.6297 97.9637 69.2805 83.7295 81.8822 92.8828C94.4838 102.036 99.2486 110.294 99.2486 110.294L120.288 131.727L133.808 159.009Z" fill="#2F2E41"/>
<path d="M46.6503 84.8558L35.6928 84.4453C35.6928 84.4453 22.9511 79.0782 29.4874 87.5206C36.0237 95.9629 54.7977 112.146 56.1696 108.811C57.5415 105.476 57.8399 98.7385 56.81 98.296C55.7802 97.8535 48.717 94.4512 46.6503 84.8558Z" fill="#2F2E41"/>
<path d="M87.2193 164.095L82.915 172.927C82.915 172.927 75.5021 179.152 82.1061 180.664C88.7101 182.176 103.707 179.848 102.579 175.941C101.45 172.035 98.2443 166.212 97.6409 166.708C97.0375 167.204 92.7178 170.302 87.2193 164.095Z" fill="#2F2E41"/>
<path d="M116.358 132.612C116.358 132.612 124.681 158.222 133.152 160.396C141.622 162.57 183.594 142.832 182.184 131.849C180.774 120.866 179.155 121.668 179.155 121.668L162.916 110.601L169.509 106.272C169.509 106.272 167.819 102.862 165.179 103.639C162.54 104.416 152.873 103.897 147.876 110.09C142.88 116.283 134.666 109.202 134.666 109.202L116.358 132.612Z" fill="#895757"/>
<path d="M74.8013 60.2852L89.8616 102.203L118.471 80.5912L106.391 41.9752L74.8013 60.2852Z" fill="#3F3D56"/>
<path d="M76.4851 61.3092L90.2422 98.5627L116.335 78.9946L105.916 44.069L76.4851 61.3092Z" fill="white"/>
<path d="M91.152 102.094L89.8616 102.203L90.167 104.175L117.603 137.836L118.172 136.943L117.203 134.318L91.152 102.094Z" fill="#B3B3B3"/>
<path d="M89.6502 101.776L117.931 137.142L146.774 113.291L118.471 80.5911L89.6502 101.776Z" fill="#D0CDE1"/>
<path d="M93.3335 98.3584L94.3898 100.49L116.289 84.3271L114.963 82.3294L93.3335 98.3584Z" fill="#3F3D56"/>
<path d="M95.9856 102.354L108.002 117.107L130.23 100.251L118.097 86.6173L95.9856 102.354Z" fill="#3F3D56"/>
<path d="M138.362 110.557L135.863 107.548C135.863 107.548 121.207 93.5715 119.659 98.5863C118.112 103.601 136.333 115.279 136.333 115.279L139.571 113.675L138.362 110.557Z" fill="#F4C48E"/>
<path d="M119.125 123.276L115.78 118.562C115.78 118.562 105.805 103.859 110.005 102.84C114.205 101.82 122.678 116.206 122.678 116.206L124.098 119.75L119.125 123.276Z" fill="#F4C48E"/>
<path d="M124.544 117.936C124.544 117.936 116.684 119.707 117.682 122.399C118.679 125.09 136.343 164.124 143.722 162.06C151.101 159.997 187.303 148.959 177.246 137.482C167.19 126.005 162.639 130.385 162.639 130.385L141.607 145.586L124.544 117.936Z" fill="#575A89"/>
<path d="M148.152 112.342L137.095 107.999L135.225 116.094L146.231 123.383L148.152 112.342Z" fill="#575A89"/>
<path opacity="0.2" d="M132.799 129.509L141.906 145.173L159.678 134.242L143.278 141.838L132.799 129.509Z" fill="black"/>
<path d="M197.494 120.88C204.945 117.188 206.255 104.652 200.421 92.8804C194.588 81.1089 183.819 74.5593 176.369 78.2515C168.918 81.9437 167.608 94.4796 173.441 106.251C179.275 118.023 190.044 124.572 197.494 120.88Z" fill="#2F2E41"/>
<path d="M86.6585 71.6659L102.93 62.456L99.7235 51.9168L82.8644 61.2973L86.6585 71.6659Z" fill="#3F3D56" fill-opacity="0.81"/>
<path d="M85.0882 79.347L109.815 65.4996L109.24 63.6607L84.5782 77.64L85.0882 79.347Z" fill="#E6E6E6"/>
<path d="M86.661 83.8773L111.389 70.0298L110.813 68.1909L86.151 82.1703L86.661 83.8773Z" fill="#E6E6E6"/>
<path d="M88.0812 87.421L112.809 73.574L112.234 71.735L87.5712 85.714L88.0812 87.421Z" fill="#E6E6E6"/>
</svg>
