 <svg version="1.0" xmlns="http://www.w3.org/2000/svg" width="700.000000pt" height="258.000000pt" viewBox="0 0 700.000000 258.000000" preserveAspectRatio="xMidYMid meet">
<metadata>
Created by potrace 1.12, written by Peter Selinger 2001-2015
</metadata>
<g transform="translate(0.000000,258.000000) scale(0.100000,-0.100000)" fill="#000000" stroke="none">
<path d="M1631 2106 c-9 -11 -6 -15 14 -20 14 -4 30 -4 35 -1 6 4 10 1 10 -6
0 -7 3 -10 6 -7 3 4 1 16 -6 27 -12 24 -42 28 -59 7z"></path>
<path d="M1570 2090 c0 -5 7 -10 15 -10 8 0 15 5 15 10 0 6 -7 10 -15 10 -8 0
-15 -4 -15 -10z"></path>
<path d="M1740 2092 c0 -5 17 -12 38 -14 61 -8 60 9 -2 19 -22 3 -36 2 -36 -5z"></path>
<path d="M1290 2070 c0 -5 5 -10 10 -10 6 0 10 5 10 10 0 6 -4 10 -10 10 -5 0
-10 -4 -10 -10z"></path>
<path d="M1497 2074 c-14 -14 -7 -53 11 -56 14 -3 17 -15 17 -73 0 -82 19
-100 23 -21 6 105 -20 181 -51 150z"></path>
<path d="M1840 1725 c0 -210 4 -325 10 -325 6 0 10 115 10 325 0 210 -4 325
-10 325 -6 0 -10 -115 -10 -325z"></path>
<path d="M1270 2011 l-35 -6 -5 -590 -5 -590 -59 -5 c-48 -4 -64 -2 -83 13
-19 15 -21 22 -12 34 10 11 9 17 -2 27 -11 9 -62 11 -220 7 -114 -3 -214 -5
-223 -3 -20 4 -21 22 -1 22 8 0 15 5 15 10 0 6 -7 10 -15 10 -21 0 -19 20 3
21 9 0 87 2 172 2 208 3 208 21 0 24 -85 1 -163 2 -172 3 -22 0 -24 20 -3 20
21 0 19 16 -2 25 -39 16 30 24 182 22 99 -1 154 2 152 8 -1 6 -68 11 -171 12
-92 1 -171 4 -174 7 -14 15 18 18 176 16 98 0 173 3 176 9 3 5 0 11 -6 14 -10
3 -10 7 -1 19 7 8 10 18 6 21 -11 11 -313 8 -313 -3 0 -5 26 -10 58 -11 204
-3 225 -4 230 -17 3 -10 -28 -11 -150 -7 -84 2 -160 5 -168 5 -12 1 -11 3 2
11 22 12 23 29 3 29 -21 0 -19 20 3 20 9 1 87 1 174 0 87 0 159 3 162 8 6 10
-212 26 -284 22 -58 -3 -80 -1 -80 10 0 6 9 10 20 10 11 0 20 5 20 10 0 6 -9
10 -20 10 -11 0 -20 5 -20 10 0 6 10 10 23 10 12 1 94 2 181 3 l160 2 0 30 0
30 -157 3 c-100 2 -157 -1 -157 -7 0 -7 58 -12 148 -13 81 -2 147 -7 147 -12
0 -6 -114 -9 -327 -6 -10 0 -18 5 -18 10 0 6 9 10 20 10 11 0 20 5 20 10 0 6
-9 10 -20 10 -11 0 -20 5 -20 10 0 6 10 10 23 10 12 1 92 2 177 3 95 1 155 6
155 12 0 6 -60 11 -155 12 -85 1 -165 2 -177 3 -13 0 -23 5 -23 10 0 6 9 10
20 10 11 0 20 5 20 10 0 6 -9 10 -20 10 -26 0 -26 20 -1 27 16 4 19 13 17 54
-2 50 -18 81 -31 59 -4 -6 -1 -17 5 -25 8 -9 8 -15 2 -15 -6 0 -17 -3 -26 -6
-11 -4 -15 4 -18 38 l-3 43 -55 -3 c-30 -2 -95 -7 -145 -10 l-90 -7 -7 -90
c-4 -49 -7 -236 -6 -414 1 -242 -1 -326 -10 -329 -7 -2 -12 -24 -12 -54 0 -41
-3 -51 -20 -55 -11 -3 -20 -12 -20 -20 0 -9 -6 -13 -14 -10 -24 10 -26 -5 -3
-24 l22 -18 -22 6 c-14 3 -23 1 -23 -6 0 -6 -7 -11 -15 -11 -14 0 -19 -12 -16
-33 2 -12 -17 -8 -22 6 -6 16 -18 4 -20 -21 -1 -12 -6 -18 -15 -14 -10 3 -12
14 -7 36 4 17 7 39 7 48 -1 11 7 18 19 18 17 0 19 7 19 69 0 50 -4 70 -14 74
-8 3 -16 16 -18 29 -4 23 -5 22 -16 -4 -8 -20 -19 -28 -37 -28 -24 0 -25 -2
-25 -69 0 -60 2 -69 20 -74 18 -5 30 -29 13 -26 -32 5 -33 0 -33 -291 l0 -290
222 2 c215 3 223 4 223 23 0 11 -2 25 -5 30 -8 14 -6 26 8 52 12 22 11 22 -13
13 -38 -14 -75 -12 -81 5 -3 8 -1 28 4 45 8 23 8 33 -2 42 -7 7 -11 20 -9 29
4 13 -1 16 -24 13 -27 -3 -27 -3 4 7 25 9 31 17 30 36 -2 19 4 26 21 29 25 4
30 -11 7 -20 -28 -10 -16 -27 17 -24 l33 3 2 -59 c1 -32 5 -61 8 -65 4 -3 32
-6 63 -6 l57 0 3 -77 c2 -43 7 -78 11 -78 5 0 12 49 16 110 4 60 11 107 16
105 4 -3 7 -53 5 -110 l-4 -105 38 0 37 0 8 100 c6 96 8 100 30 100 32 0 56
10 49 21 -3 5 -18 9 -35 9 -29 0 -29 0 -29 59 0 50 3 61 23 74 13 8 34 17 48
19 l24 3 -3 -192 c-3 -189 -2 -193 18 -193 19 0 20 5 19 100 -2 55 -6 100 -11
100 -5 0 -4 9 2 19 13 25 13 158 0 166 -21 13 -9 32 20 32 32 0 37 -6 19 -24
-8 -8 -8 -13 0 -17 13 -9 15 -98 2 -112 -5 -5 -11 -27 -13 -49 -2 -31 1 -40
15 -43 15 -3 17 5 17 62 0 36 4 66 9 66 4 0 6 -68 4 -150 l-4 -150 36 0 37 0
-3 45 c-2 35 1 48 16 59 20 15 20 15 0 30 -11 8 -26 16 -32 16 -7 0 -13 5 -13
10 0 6 18 10 40 10 30 0 42 -5 46 -17 11 -36 21 -47 48 -50 34 -5 56 12 56 43
0 23 4 24 59 24 69 0 86 13 71 56 -5 16 -8 36 -7 44 1 8 -2 15 -8 15 -5 0 -9
-6 -9 -12 2 -12 -10 -17 -29 -14 -4 1 -10 -6 -13 -14 -4 -8 -12 -15 -20 -15
-8 0 -19 -9 -26 -20 -9 -14 -24 -20 -48 -20 l-35 0 25 -20 c20 -15 22 -21 13
-31 -27 -27 -43 -19 -41 22 1 28 6 39 17 39 16 0 71 42 71 54 0 3 -16 6 -35 6
-24 0 -35 -5 -35 -15 0 -18 -16 -20 -24 -2 -5 9 -7 9 -12 0 -3 -7 -10 -13 -15
-13 -6 0 -6 7 -1 18 4 9 7 23 6 30 -1 6 -2 19 -3 27 -2 26 -20 16 -23 -12 -4
-33 -23 -28 -23 5 -1 13 -7 27 -15 32 -11 7 -11 10 -2 10 8 0 6 7 -7 21 -25
27 -32 66 -14 73 23 9 28 7 15 -6 -30 -30 1 -74 33 -48 12 10 15 9 15 -9 0
-11 5 -21 11 -21 7 0 9 10 5 24 -8 32 7 40 65 37 37 -2 50 2 58 16 10 17 12
17 21 1 15 -25 146 -27 136 -3 -8 23 24 32 40 11 10 -14 16 -15 32 -5 15 9 30
9 65 1 25 -7 103 -12 173 -12 l127 0 -6 30 c-5 23 -3 28 8 23 8 -3 15 -16 15
-29 0 -17 6 -24 20 -24 29 0 26 -38 -7 -73 -26 -28 -27 -29 -5 -23 16 6 22 3
22 -8 0 -9 -6 -16 -14 -16 -11 0 -26 -20 -26 -35 0 -3 10 -13 22 -25 20 -19
20 -20 3 -20 -14 0 -16 -3 -8 -11 14 -14 49 -7 45 9 -1 7 2 12 7 12 5 0 11
-10 13 -23 2 -12 10 -23 18 -23 8 -1 21 -2 28 -3 19 -2 14 -25 -9 -44 -16 -14
-24 -16 -35 -6 -8 6 -14 8 -14 4 0 -4 -6 -3 -12 2 -7 5 -31 8 -53 7 -22 -2
-61 -4 -87 -5 -45 -2 -46 -2 -25 -19 15 -13 35 -16 73 -14 29 2 55 0 58 -5 3
-5 15 -7 26 -4 12 3 29 -2 40 -12 18 -17 20 -17 20 -1 0 13 6 15 25 10 25 -6
36 10 13 19 -7 3 2 6 20 6 24 1 31 -3 26 -11 -6 -10 -4 -10 7 0 19 17 36 15
60 -9 17 -17 23 -18 36 -7 14 11 14 13 -3 18 -11 3 -20 16 -22 29 -2 15 0 21
7 17 6 -4 11 -13 11 -21 0 -8 18 -16 50 -20 40 -5 48 -10 40 -20 -8 -9 -4 -14
15 -17 14 -3 25 -2 25 3 0 8 59 24 73 21 5 -2 6 2 2 8 -3 5 1 10 9 10 8 0 18
-5 21 -11 5 -7 87 -9 258 -6 l251 4 63 -44 c34 -24 65 -48 68 -54 10 -14 182
-11 188 4 4 9 6 9 6 0 1 -18 28 -16 35 2 7 20 26 19 26 -1 0 -13 14 -15 97
-12 86 3 98 5 101 21 3 15 0 18 -16 13 -11 -4 -23 -2 -27 4 -4 6 6 10 26 10
26 0 30 3 21 12 -9 9 -25 9 -64 1 -29 -6 -55 -8 -58 -4 -7 8 -37 8 -46 -1 -10
-11 45 -30 66 -23 10 3 21 2 23 -3 3 -4 -13 -7 -36 -6 -70 2 -77 3 -77 18 0
11 -13 13 -60 9 -53 -5 -60 -4 -54 11 3 9 1 16 -5 16 -6 0 -10 3 -10 8 4 21
-2 32 -13 26 -8 -4 -10 -3 -5 2 5 5 12 9 15 9 4 0 13 4 20 8 6 5 12 4 12 -2 0
-5 -4 -12 -10 -16 -5 -3 -7 -12 -4 -20 7 -17 34 -8 34 11 0 22 48 36 118 35
48 -1 62 3 63 14 1 8 3 20 4 25 1 6 3 16 5 23 1 6 6 -1 11 -17 6 -23 4 -37
-11 -62 -18 -29 -19 -32 -4 -38 9 -4 22 -2 29 4 7 5 26 7 44 4 18 -4 31 -2 31
4 0 5 -16 13 -35 16 -32 6 -50 26 -24 26 6 0 8 12 6 28 -4 24 -2 28 17 26 11
-1 24 -3 29 -3 4 -1 7 -10 7 -21 0 -20 5 -20 138 -18 l137 3 -2 28 c-1 15 2
27 8 27 5 0 9 -13 9 -30 0 -19 5 -30 14 -30 22 0 28 17 16 39 -6 13 -7 22 0
26 14 9 21 -33 18 -105 -3 -63 -4 -65 -30 -68 -16 -2 -28 1 -28 7 0 6 -4 11
-10 11 -5 0 -10 -9 -10 -20 0 -17 7 -20 40 -20 22 0 40 -4 40 -10 0 -5 5 -10
11 -10 6 0 10 29 8 80 -1 44 2 79 7 79 5 -1 14 -3 19 -5 6 -2 33 -5 60 -6 l50
-3 3 -44 c2 -24 -1 -48 -6 -53 -12 -12 -42 1 -42 18 0 9 -11 14 -30 14 -16 0
-30 -4 -30 -10 0 -5 5 -10 10 -10 6 0 10 -7 10 -15 0 -11 11 -15 40 -15 27 0
42 -5 49 -17 16 -30 26 -5 26 65 l0 67 44 6 c25 3 47 11 49 18 3 8 8 7 16 -5
7 -9 18 -14 24 -10 18 11 14 36 -5 37 -26 2 -36 4 -56 13 -11 5 -28 4 -43 -2
-19 -9 -24 -9 -24 2 0 8 5 16 12 18 6 2 12 22 12 44 1 39 1 39 44 42 24 2 50
-2 57 -8 17 -14 8 -43 -11 -36 -13 5 -16 2 -18 -25 -1 -6 18 -13 42 -15 l42
-4 0 80 c0 47 4 80 10 80 6 0 10 -34 10 -82 0 -57 3 -79 10 -72 7 7 10 47 8
100 l-3 89 -110 0 -110 0 -3 33 c-5 52 2 64 33 50 14 -6 25 -15 25 -20 0 -5
19 -9 43 -9 23 0 149 -3 280 -5 237 -5 239 -5 232 15 -3 12 -2 21 3 21 5 0 12
-9 15 -21 5 -18 12 -20 64 -18 32 2 64 7 71 13 9 6 16 6 20 0 8 -12 95 -17 87
-5 -2 5 2 14 10 21 12 10 15 9 15 -4 0 -9 -5 -25 -12 -36 -16 -25 -4 -37 17
-16 18 17 18 17 53 21 28 3 28 -9 0 -37 -24 -24 -30 -39 -30 -77 0 -23 -18
-51 -34 -51 -8 0 -33 32 -34 43 0 15 19 6 22 -10 3 -16 5 -16 16 3 9 17 8 25
-3 40 -13 17 -16 17 -27 3 -7 -8 -21 -18 -30 -22 -10 -3 -18 -13 -18 -22 0 -8
-9 -15 -19 -15 -11 0 -22 -6 -25 -12 -3 -9 -8 -8 -16 5 -13 20 -35 23 -27 4 3
-7 -1 -21 -9 -31 -12 -17 -27 -19 -154 -17 -100 2 -140 -1 -140 -9 0 -8 37
-11 130 -8 127 3 129 3 116 -17 -9 -13 -22 -19 -39 -17 -23 3 -26 0 -25 -30 1
-18 6 -37 12 -41 6 -5 -1 -6 -16 -3 -29 7 -36 -2 -17 -21 15 -15 0 -21 -38
-16 -24 4 -33 11 -33 24 0 21 -11 24 -27 8 -9 -9 -16 -8 -28 5 -9 9 -24 17
-33 17 -48 4 -63 7 -70 14 -4 5 1 5 10 2 9 -3 22 1 28 9 7 8 19 14 26 14 8 0
14 5 14 10 0 18 -47 10 -82 -14 -24 -16 -44 -22 -62 -19 -33 7 -34 23 -1 23
14 0 25 5 25 11 0 6 -15 9 -36 7 -32 -3 -37 -7 -40 -30 -2 -26 0 -28 32 -28
22 0 34 -5 34 -13 0 -8 9 -22 20 -32 25 -22 25 -34 3 -51 -17 -13 -16 -14 5
-20 14 -4 21 -12 18 -20 -4 -12 39 -14 258 -14 l263 0 11 24 c5 13 20 26 31
29 27 7 27 -10 0 -18 -16 -5 -18 -10 -8 -21 10 -12 158 -14 988 -14 768 0 980
3 990 12 11 10 14 10 18 1 3 -7 19 -13 36 -13 25 0 36 7 50 31 23 41 22 56 -3
34 -11 -10 -20 -25 -20 -32 0 -8 -3 -13 -7 -11 -51 24 -63 33 -63 45 0 8 12
13 30 13 30 0 39 16 21 36 -9 9 10 46 23 45 19 -2 26 0 26 9 0 6 -7 10 -15 10
-9 0 -15 6 -13 12 3 15 -3 18 -32 18 -13 0 -18 -5 -14 -15 4 -8 13 -15 21 -15
10 0 3 -11 -17 -30 -18 -16 -35 -30 -37 -30 -3 0 -3 27 0 60 4 37 3 60 -3 60
-6 0 -10 -8 -10 -18 0 -10 -2 -21 -5 -24 -10 -10 -54 4 -49 16 6 15 -47 17
-65 3 -12 -10 -13 -9 -6 3 6 8 10 20 10 25 0 6 10 14 23 20 31 14 27 28 -6 20
-24 -5 -30 -2 -40 20 -11 23 -10 25 14 25 23 0 25 2 13 16 -8 10 -22 14 -40
10 -28 -5 -39 7 -39 41 0 14 3 14 20 -2 19 -18 20 -17 20 3 0 28 34 29 75 2
34 -22 75 -26 75 -7 0 14 39 41 48 33 3 -4 -2 -12 -11 -19 -27 -19 -12 -77 19
-77 22 0 24 4 24 46 0 45 0 45 33 42 l32 -3 5 -187 c5 -187 20 -274 20 -119 0
78 1 82 20 76 16 -5 20 -2 20 14 0 12 -4 21 -10 21 -5 0 -10 -5 -10 -11 0 -5
-4 -7 -10 -4 -5 3 -10 43 -10 88 0 66 4 87 20 107 27 34 25 50 -6 50 -14 0
-23 4 -19 10 3 6 15 10 26 10 17 0 19 8 19 98 0 59 -4 92 -9 83 -5 -7 -13 -11
-19 -7 -6 3 -13 2 -17 -4 -7 -12 -25 -4 -25 11 0 5 7 9 15 9 8 0 15 5 15 11 0
5 5 7 12 3 7 -5 8 -3 3 5 -4 8 -17 10 -31 7 -14 -4 -24 -2 -24 4 0 6 -4 8 -10
5 -5 -3 -10 -17 -10 -31 0 -22 -4 -25 -27 -22 -35 4 -38 -22 -5 -37 29 -13 28
-19 -8 -57 -16 -17 -30 -26 -30 -19 0 6 7 14 15 17 8 4 15 13 15 21 0 24 -44
12 -48 -13 -6 -42 -62 -34 -62 8 0 27 -18 22 -38 -12 l-18 -29 2 41 c2 44 15
58 48 51 19 -3 19 -3 -2 7 -14 6 -20 15 -16 21 5 9 0 10 -14 7 -25 -7 -41 9
-19 18 8 3 13 13 10 22 -3 13 -17 18 -56 20 -41 2 -48 0 -34 -9 22 -13 13 -29
-13 -22 -18 5 -20 0 -20 -50 0 -47 3 -55 21 -60 12 -3 18 -10 14 -16 -4 -7
-17 -3 -36 11 -29 22 -29 22 -29 126 0 99 1 103 20 97 18 -6 20 -2 20 36 0 27
-6 46 -16 54 -12 8 -16 29 -18 76 -1 62 -2 64 -26 61 -35 -4 -39 -16 -35 -113
1 -47 0 -92 -4 -98 -11 -17 -69 -2 -86 23 -15 20 -15 20 -15 -6 0 -21 -4 -25
-20 -21 -11 3 -20 10 -21 17 -1 13 -5 57 -9 106 -6 69 25 106 50 59 14 -25 24
-18 15 10 -4 15 -15 21 -36 21 -22 0 -29 5 -29 19 0 17 18 31 41 31 5 0 14
-10 19 -22 8 -22 9 -22 9 5 1 26 -1 27 -51 28 -34 0 -46 3 -34 8 17 7 17 8 2
23 -9 9 -16 23 -16 32 0 9 -12 16 -32 19 l-33 4 33 1 c32 2 44 23 21 38 -8 4
-7 9 2 15 11 7 11 12 2 27 -6 11 -8 24 -3 33 5 7 5 18 0 24 -5 6 -5 16 -1 23
4 7 6 26 3 42 -4 26 -8 30 -38 30 -32 0 -33 -1 -32 -40 0 -36 3 -40 27 -41
l26 -1 -25 -7 c-37 -10 -39 -41 -3 -42 27 -2 27 -2 3 -6 -14 -3 -28 -10 -32
-17 -6 -8 -8 -7 -8 3 0 7 -6 11 -12 8 -7 -2 -22 0 -33 4 l-20 9 20 -1 c38 -2
46 1 43 18 -2 11 -15 17 -40 19 l-37 3 2 -74 c1 -41 -1 -75 -5 -75 -5 0 -8 51
-8 113 0 61 -2 140 -4 175 -3 54 -1 64 16 73 13 7 17 16 13 30 -4 11 -2 19 4
19 6 0 11 -9 11 -20 0 -13 7 -20 20 -20 21 0 27 24 9 35 -15 10 30 55 55 55
33 1 84 27 66 33 -48 17 -69 17 -80 -2 -6 -13 -32 -24 -77 -35 -39 -9 -73 -23
-81 -33 -8 -11 -22 -17 -37 -15 -19 3 -24 -2 -27 -25 -3 -27 -5 -28 -77 -33
l-74 -5 -1 -190 -1 -190 -40 -3 -41 -3 -2 -124 -2 -124 27 -3 c22 -2 29 -9 31
-31 2 -19 -3 -33 -15 -43 -26 -20 -37 -12 -37 27 -1 30 -5 34 -28 37 -22 3
-28 -1 -28 -16 0 -15 -9 -21 -37 -25 -43 -7 -58 -1 -43 18 7 8 12 48 11 92 0
144 1 135 -22 128 -19 -6 -20 -4 -17 32 3 35 1 38 -22 38 -25 0 -25 -1 -25
-85 0 -47 -4 -84 -8 -82 -4 1 -12 2 -18 2 -6 0 -9 7 -5 15 3 9 0 15 -10 15
-10 0 -14 -6 -11 -14 4 -10 1 -13 -8 -9 -8 3 -12 9 -9 14 3 5 -4 9 -16 9 -12
0 -19 -4 -16 -9 3 -5 -1 -12 -10 -15 -8 -3 -12 -2 -9 4 9 15 -4 30 -21 23 -11
-4 -12 -9 -4 -18 15 -18 -24 -26 -109 -23 -46 1 -65 6 -69 17 -3 8 -1 16 5 18
6 2 8 13 5 25 -3 15 -1 19 9 16 8 -3 14 -16 14 -29 0 -31 29 -32 33 -1 2 14
10 22 23 22 10 0 19 5 19 10 0 6 -17 10 -39 10 -50 0 -61 15 -64 86 -2 47 1
59 13 59 10 0 14 -8 12 -24 -3 -16 1 -22 10 -19 21 7 22 48 1 64 -10 7 -23 12
-30 9 -6 -2 -17 3 -23 11 -10 11 -9 14 9 14 18 0 20 3 11 19 -7 14 -7 22 0 26
8 5 7 12 -2 23 -10 12 -10 16 0 19 6 3 9 10 5 16 -11 17 -11 117 0 117 5 0 5
6 -1 13 -7 7 -10 30 -9 51 2 20 -1 40 -6 43 -6 3 -3 11 7 19 11 8 13 14 7 19
-6 3 -11 31 -11 62 l0 55 -107 -6 c-60 -4 -132 -9 -160 -13 l-53 -5 0 -52 c0
-28 4 -58 10 -66 5 -9 5 -19 -1 -26 -6 -7 -6 -14 -2 -17 4 -3 8 -90 8 -194 0
-148 3 -190 13 -199 13 -10 18 -85 14 -197 -2 -39 -22 -44 -22 -6 0 20 0 20
-27 1 -16 -10 -36 -22 -45 -25 -23 -8 -26 -77 -3 -77 8 0 15 8 16 18 0 13 2
12 9 -5 11 -27 45 -30 59 -6 9 16 10 16 11 -4 0 -24 14 -31 25 -13 3 6 15 10
26 10 16 0 22 8 18 23 0 1 4 14 10 29 8 21 7 34 -4 55 -8 15 -15 34 -15 42 0
8 -8 23 -17 34 -10 11 -12 17 -5 13 10 -6 10 0 -2 22 -22 43 -11 66 27 58 17
-3 32 -8 33 -9 2 -2 5 -43 7 -92 2 -70 6 -90 18 -91 47 -3 49 -5 49 -30 0 -17
-6 -28 -20 -31 -30 -8 -24 -25 8 -21 24 3 27 8 30 43 l3 41 122 -3 c67 -2 128
-5 135 -8 17 -6 15 -25 -3 -25 -9 0 -15 -9 -15 -21 0 -14 5 -19 15 -16 8 4 17
2 20 -3 13 -21 23 -8 29 35 9 56 22 58 31 5 6 -36 10 -40 35 -40 16 0 32 -4
35 -10 3 -6 19 -10 36 -10 22 0 29 -5 29 -19 0 -15 -6 -19 -26 -18 -15 1 -29
-4 -31 -10 -3 -8 4 -13 16 -13 15 0 21 -6 21 -21 0 -11 -5 -17 -10 -14 -15 10
-50 -5 -50 -20 0 -8 8 -18 17 -24 25 -14 9 -25 -16 -11 -12 6 -25 8 -30 5 -5
-3 -22 -1 -36 5 -26 10 -27 13 -21 59 7 50 1 81 -15 81 -5 0 -9 -11 -9 -25 0
-14 -4 -33 -9 -43 -5 -9 -12 -25 -15 -35 -5 -14 -18 -17 -83 -17 -43 0 -84 4
-92 9 -9 6 -21 5 -32 -2 -14 -9 -22 -7 -37 7 -16 13 -21 14 -26 4 -5 -10 -7
-10 -12 0 -3 6 -10 10 -15 6 -5 -3 -9 13 -9 35 0 34 -3 41 -19 41 -11 0 -21
-5 -23 -11 -2 -7 -12 -7 -31 0 -29 11 -72 6 -94 -11 -7 -6 -20 -7 -29 -4 -14
5 -14 9 -3 23 13 15 11 16 -18 10 -24 -5 -33 -3 -33 7 0 8 -9 16 -20 19 -17 4
-20 14 -20 56 0 28 -4 51 -10 51 -16 0 -11 -89 6 -116 15 -22 15 -26 1 -37 -9
-7 -17 -25 -19 -42 -3 -26 -7 -30 -33 -30 -30 0 -30 1 -33 61 -3 55 -1 62 18
67 17 4 20 13 20 56 0 44 3 51 19 51 35 0 36 7 25 265 -1 39 -3 111 -3 162 -1
52 -6 95 -12 98 -13 9 -59 -3 -59 -14 0 -6 10 -11 22 -13 22 -3 23 -8 25 -90
l2 -88 -53 0 c-65 0 -66 2 -73 120 -5 89 -13 103 -50 93 -19 -4 -23 -1 -23 16
0 19 -5 21 -70 21 -43 0 -70 4 -70 11 0 7 11 8 29 4 17 -4 32 -2 36 5 10 16 0
23 -35 24 -24 1 -30 5 -30 22 0 19 -5 22 -35 20 -32 -1 -35 1 -35 26 l0 28
-76 -3 -76 -2 4 47 3 48 -52 0 -53 0 0 -39 c0 -22 -4 -43 -10 -46 -6 -3 -10
-19 -10 -34 0 -32 -20 -53 -47 -51 -10 1 -37 2 -60 1 l-42 -1 -3 -87 -3 -88
-62 -3 -63 -3 0 36 0 35 -95 0 -95 0 0 -54 c0 -30 -5 -58 -10 -61 -6 -4 -9
-14 -8 -23 2 -10 -4 -17 -12 -17 -12 0 -16 25 -20 145 -3 80 -7 117 -8 83 -1
-47 -6 -63 -16 -63 -8 0 -17 8 -19 18 -3 10 -5 6 -6 -10 -1 -19 4 -28 14 -28
8 0 15 -4 15 -10 0 -5 -7 -10 -15 -10 -9 0 -15 -9 -15 -25 0 -15 6 -25 14 -25
17 0 28 -62 12 -72 -34 -23 -36 -12 -38 235 -1 142 -4 217 -8 182 l-7 -60 -3
60 c-3 57 -3 58 -10 20 l-6 -40 -6 40 c-2 22 -6 -50 -8 -160 -4 -192 -5 -195
-9 -75 l-6 125 -5 -165 -5 -165 -27 -3 -28 -3 2 203 c2 196 2 198 8 73 l6
-130 1 170 c0 97 -3 153 -7 130 l-7 -40 -2 40 c-2 31 -4 36 -10 20 l-8 -20 -5
20 c-6 23 -9 -38 -11 -237 -1 -75 -4 -139 -8 -142 -3 -3 -3 -57 -1 -121 3 -94
0 -118 -12 -131 -9 -8 -20 -12 -26 -9 -6 4 -10 116 -11 303 -1 317 -8 430 -24
422 -5 -3 -10 -16 -10 -30 0 -24 -3 -25 -90 -34 -63 -6 -90 -5 -93 3 -2 6 -8
11 -13 11 -13 0 -11 -44 3 -58 7 -7 8 -15 1 -24 -5 -7 -10 -87 -12 -178 -1
-122 -5 -168 -15 -175 -9 -7 -15 -54 -19 -153 -6 -122 -5 -142 8 -142 8 0 15
-4 15 -9 0 -5 -20 -9 -45 -9 -24 0 -48 -3 -53 -6 -5 -3 -10 -48 -11 -101 l-2
-94 142 -3 143 -3 7 -29 c5 -16 6 -33 3 -38 -3 -4 -175 -8 -383 -8 -324 0
-380 2 -391 15 -15 18 -36 19 -46 3 -4 -7 -7 -65 -7 -129 1 -91 -2 -119 -13
-123 -22 -8 -34 58 -34 192 l0 122 189 0 189 0 0 215 c0 204 -1 215 -19 215
-11 0 -19 -4 -19 -10 0 -5 5 -10 10 -10 6 0 10 -4 10 -10 0 -5 -7 -10 -15 -10
-18 0 -20 -16 -2 -23 9 -4 8 -8 -3 -16 -13 -9 -13 -11 3 -11 9 0 17 -4 17 -10
0 -5 -7 -10 -15 -10 -18 0 -20 -16 -2 -23 9 -4 9 -8 -2 -15 -11 -8 -11 -11 0
-16 11 -5 11 -7 2 -12 -18 -8 -16 -24 2 -24 8 0 15 -4 15 -10 0 -5 -6 -10 -12
-10 -7 0 -13 -11 -13 -25 0 -14 6 -25 13 -25 6 0 12 -4 12 -10 0 -5 -7 -10
-15 -10 -8 0 -15 -4 -15 -10 0 -5 7 -10 15 -10 21 0 19 -20 -2 -21 -11 0 -13
-3 -5 -6 34 -14 1 -21 -96 -22 l-109 0 -6 112 c-4 62 -7 218 -7 348 0 200 2
239 15 249 9 8 13 21 9 32 -4 14 0 21 15 25 17 4 19 8 10 19 -9 11 -8 18 5 32
9 10 16 24 16 30 0 17 -37 15 -43 -2 -3 -8 -28 -17 -57 -21 -29 -4 -54 -13
-57 -21 -3 -9 -21 -14 -49 -14 -41 0 -59 -15 -31 -26 15 -5 15 -47 -1 -66 -7
-9 -11 -82 -11 -213 0 -110 -1 -206 -1 -212 0 -10 -53 -13 -232 -13 l-233 0
-1 -55 -1 -55 240 0 c132 0 237 -3 233 -7 -4 -5 -118 -8 -252 -8 -186 0 -245
3 -249 13 -2 6 -12 12 -20 12 -12 0 -16 -8 -14 -32 4 -60 -1 -99 -11 -93 -6 4
-10 60 -10 136 0 88 -4 129 -11 129 -6 0 -9 9 -6 20 3 11 1 23 -4 26 -5 3 -9
14 -9 25 0 11 4 18 9 15 17 -11 21 41 21 280 l0 241 -74 7 c-87 8 -236 -3
-236 -17 0 -6 -5 -6 -12 1 -7 5 -27 7 -45 5 -38 -6 -48 -30 -57 -138 -9 -106
-28 -152 -66 -167 -13 -5 -15 22 -12 216 2 176 6 224 17 236 12 11 18 12 27 2
20 -20 40 -14 36 10 -3 25 -16 29 -68 19z m448 -202 c22 -8 22 -9 22 -239 l0
-230 -26 0 c-16 0 -23 4 -18 11 5 8 1 8 -13 0 -15 -7 -25 -7 -36 2 -15 11 -20
40 -30 162 -1 17 -6 36 -11 44 -5 8 -4 16 4 21 9 6 9 9 0 15 -6 4 -9 13 -6 20
2 7 -2 16 -10 19 -8 3 -14 12 -14 20 0 9 -7 12 -20 9 -13 -3 -20 0 -20 8 0 11
-2 11 -10 -1 -8 -12 -10 -12 -11 5 0 11 -2 30 -5 42 -2 12 1 25 6 28 6 3 10 1
10 -4 0 -6 5 -11 10 -11 13 0 13 37 1 44 -5 4 -12 0 -15 -6 -3 -7 -3 -2 0 10
5 20 3 23 -13 18 -10 -3 -24 -2 -32 3 -11 7 -9 10 8 16 13 4 28 1 37 -6 13
-11 18 -10 26 4 8 15 19 16 76 11 37 -4 77 -11 90 -15z m1669 -81 c-3 -8 -6
-5 -6 6 -1 11 2 17 5 13 3 -3 4 -12 1 -19z m0 -40 c-3 -8 -6 -5 -6 6 -1 11 2
17 5 13 3 -3 4 -12 1 -19z m110 -100 c-2 -24 -4 -5 -4 42 0 47 2 66 4 43 2
-24 2 -62 0 -85z m-110 60 c-3 -8 -6 -5 -6 6 -1 11 2 17 5 13 3 -3 4 -12 1
-19z m130 -100 c-2 -24 -4 -5 -4 42 0 47 2 66 4 43 2 -24 2 -62 0 -85z m-130
20 c-2 -13 -4 -3 -4 22 0 25 2 35 4 23 2 -13 2 -33 0 -45z m-977 32 c0 -5 -2
-10 -4 -10 -3 0 -8 5 -11 10 -3 6 -1 10 4 10 6 0 11 -4 11 -10z m1903 -12 c37
-1 67 -6 67 -10 0 -8 -47 -12 -107 -8 -24 1 -33 -3 -33 -14 0 -12 14 -15 66
-15 68 0 104 -10 43 -12 -19 -1 -53 -2 -76 -3 l-43 -1 0 38 c0 21 4 36 8 33 4
-2 38 -6 75 -8z m-3923 -39 c0 -5 -16 -9 -35 -9 -19 0 -35 4 -35 8 0 5 14 6
31 4 24 -4 30 -2 24 8 -5 9 -4 11 3 6 7 -4 12 -11 12 -17z m2997 -91 c-2 -18
-4 -6 -4 27 0 33 2 48 4 33 2 -15 2 -42 0 -60z m110 60 c-3 -8 -6 -5 -6 6 -1
11 2 17 5 13 3 -3 4 -12 1 -19z m2583 2 c0 -5 -4 -10 -10 -10 -5 0 -10 5 -10
10 0 6 5 10 10 10 6 0 10 -4 10 -10z m-5470 -19 c0 -11 -26 -22 -34 -14 -12
12 -5 23 14 23 11 0 20 -4 20 -9z m3735 -10 c35 -8 31 -9 -37 -10 -46 -1 -78
3 -78 9 0 12 59 12 115 1z m120 0 c3 -5 1 -12 -5 -16 -5 -3 -10 1 -10 9 0 18
6 21 15 7z m72 -7 c-3 -3 -12 -4 -19 -1 -8 3 -5 6 6 6 11 1 17 -2 13 -5z
m-1040 -26 c-3 -8 -6 -5 -6 6 -1 11 2 17 5 13 3 -3 4 -12 1 -19z m774 -16
c-13 -2 -27 0 -32 5 -6 6 3 7 23 4 28 -4 29 -6 9 -9z m-1866 -2 c3 -5 1 -10
-4 -10 -6 0 -11 5 -11 10 0 6 2 10 4 10 3 0 8 -4 11 -10z m2163 3 c-21 -2 -57
-2 -80 0 -24 2 -7 4 37 4 44 0 63 -2 43 -4z m-253 -35 l70 -3 -78 -5 c-72 -5
-77 -4 -77 15 0 13 3 16 8 8 4 -7 37 -13 77 -15z m-818 -10 c-3 -8 -6 -5 -6 6
-1 11 2 17 5 13 3 -3 4 -12 1 -19z m1103 2 c0 -5 -5 -10 -11 -10 -5 0 -7 5 -4
10 3 6 8 10 11 10 2 0 4 -4 4 -10z m-47 -7 c-13 -2 -35 -2 -50 0 -16 2 -5 4
22 4 28 0 40 -2 28 -4z m-53 -38 c0 -1 -11 -5 -25 -7 -16 -3 -25 -1 -25 7 0 8
9 10 25 7 14 -2 25 -6 25 -7z m-531 -267 c1 -177 1 -178 80 -178 38 0 40 2 43
33 3 30 6 32 46 35 28 2 42 8 42 18 0 8 7 14 15 14 9 0 15 9 15 22 0 19 1 20
18 5 9 -8 35 -17 57 -20 l40 -4 -42 -1 c-31 -2 -43 -6 -43 -17 0 -12 15 -15
78 -15 81 0 85 -15 5 -19 -80 -4 -74 -17 13 -30 32 -5 48 -9 34 -10 l-25 -2
22 -18 c18 -15 20 -20 8 -25 -8 -3 -15 -1 -15 5 0 6 -9 8 -20 4 -16 -5 -20 -2
-21 17 0 13 -3 17 -6 10 -2 -6 -9 -9 -15 -6 -6 4 -28 9 -49 10 -30 3 -41 0
-49 -16 -9 -16 -8 -20 5 -20 10 0 13 -5 9 -12 -10 -17 -12 -78 -2 -78 4 0 8
-6 8 -13 0 -7 9 -18 20 -25 11 -7 20 -19 20 -28 0 -9 6 -14 13 -12 7 3 13 28
15 64 3 59 3 59 40 71 20 6 39 8 42 3 4 -6 5 -90 1 -110 -1 -3 -5 1 -10 9 -6
9 -8 5 -8 -14 0 -16 3 -22 7 -15 5 9 9 9 14 1 4 -6 25 -11 47 -11 41 0 48 -7
27 -28 -10 -10 -8 -14 10 -19 28 -7 24 -27 -6 -31 -16 -3 -22 -10 -22 -29 0
-15 -5 -23 -12 -21 -7 3 -13 10 -13 16 0 6 -6 17 -13 24 -10 10 -17 8 -35 -14
-16 -20 -30 -27 -54 -26 -18 0 -33 5 -33 10 0 4 3 8 8 9 22 2 56 10 60 14 8 7
-19 35 -34 35 -8 0 -14 -6 -14 -12 -1 -8 -7 -5 -15 6 -12 16 -23 18 -67 13
-41 -5 -56 -3 -71 11 -18 16 -20 16 -32 -1 -12 -16 -13 -16 -18 4 -3 11 -3 19
0 16 7 -8 43 25 43 40 0 17 -48 36 -75 29 -27 -7 -45 -45 -45 -96 0 -47 -16
-61 -30 -25 -16 41 -13 125 4 125 15 0 28 24 19 34 -13 13 -33 5 -33 -12 0
-30 -10 -32 -46 -11 -49 27 -54 25 -54 -26 0 -25 5 -45 11 -45 11 0 39 -24 39
-34 0 -3 -7 -6 -15 -6 -9 0 -15 -9 -15 -24 0 -30 -16 -42 -35 -26 -11 9 -15
34 -15 87 l0 74 -27 -3 c-16 -2 -27 -8 -25 -15 4 -24 -18 -13 -28 13 -6 14
-10 142 -10 290 l0 264 100 0 c97 0 100 1 101 23 5 63 17 -118 18 -255z m384
265 c-18 -2 -48 -2 -65 0 -18 2 -4 4 32 4 36 0 50 -2 33 -4z m127 -38 c0 -2
-7 -5 -15 -9 -9 -3 -15 0 -15 9 0 9 6 12 15 9 8 -4 15 -7 15 -9z m-1393 -42
c-3 -10 -5 -2 -5 17 0 19 2 27 5 18 2 -10 2 -26 0 -35z m1201 40 c-10 -2 -26
-2 -35 0 -10 3 -2 5 17 5 19 0 27 -2 18 -5z m-898 -88 c0 -50 -4 -85 -10 -85
-11 0 -14 152 -3 163 12 13 13 7 13 -78z m867 49 c-3 -3 -12 -4 -19 -1 -8 3
-5 6 6 6 11 1 17 -2 13 -5z m111 -1 c-16 -2 -40 -2 -55 0 -16 2 -3 4 27 4 30
0 43 -2 28 -4z m162 3 c0 -2 -18 -6 -40 -8 -22 -2 -40 0 -40 4 0 5 18 8 40 8
22 0 40 -2 40 -4z m-145 -46 c3 -6 -4 -10 -17 -10 -18 0 -20 2 -8 10 19 12 18
12 25 0z m155 -4 c8 -2 -9 -4 -37 -5 -29 0 -53 3 -53 7 0 7 52 6 90 -2z m233
7 c-18 -2 -48 -2 -65 0 -18 2 -4 4 32 4 36 0 50 -2 33 -4z m1463 -32 c-3 -4
-22 -5 -43 -2 l-38 5 35 6 c37 6 53 3 46 -9z m41 3 c-3 -3 -12 -4 -19 -1 -8 3
-5 6 6 6 11 1 17 -2 13 -5z m-1509 -11 c-15 -2 -42 -2 -60 0 -18 2 -6 4 27 4
33 0 48 -2 33 -4z m-471 -9 c-3 -3 -12 -4 -19 -1 -8 3 -5 6 6 6 11 1 17 -2 13
-5z m-2337 -16 c0 -5 -22 -8 -50 -8 -27 0 -50 4 -50 10 0 5 22 8 50 7 27 -1
50 -5 50 -9z m4274 -19 c-3 -5 -10 -7 -15 -3 -5 3 -7 10 -3 15 3 5 10 7 15 3
5 -3 7 -10 3 -15z m-1434 1 c0 -6 -27 -10 -60 -10 -33 0 -60 4 -60 10 0 6 27
10 60 10 33 0 60 -4 60 -10z m-427 -7 c-13 -2 -33 -2 -45 0 -13 2 -3 4 22 4
25 0 35 -2 23 -4z m147 0 c-30 -3 -58 -10 -62 -16 -5 -8 -8 -6 -8 6 0 15 9 17
63 15 l62 -2 -55 -3z m1729 -22 c11 -1 11 -5 -3 -20 -12 -13 -26 -17 -49 -14
-18 2 -60 5 -94 6 -41 1 -63 6 -63 14 0 16 62 20 209 14z m-1471 -16 c3 -3
-16 -5 -41 -5 -27 0 -47 5 -47 11 0 10 77 5 88 -6z m-2608 1 c0 -3 -4 -8 -10
-11 -5 -3 -10 -1 -10 4 0 6 5 11 10 11 6 0 10 -2 10 -4z m127 -8 c-18 -6 -40
-7 -65 0 -35 9 -33 10 28 10 55 0 61 -1 37 -10z m790 -50 c-2 -13 -4 -3 -4 22
0 25 2 35 4 23 2 -13 2 -33 0 -45z m1293 52 c0 -5 -19 -10 -42 -10 -32 0 -39
3 -28 10 20 13 70 13 70 0z m199 -6 c2 -2 -26 -4 -62 -4 -41 0 -67 4 -67 11 0
10 119 4 129 -7z m-99 -40 c0 -2 -7 -4 -15 -4 -8 0 -15 4 -15 10 0 5 7 7 15 4
8 -4 15 -8 15 -10z m1567 -6 c-3 -8 -6 -5 -6 6 -1 11 2 17 5 13 3 -3 4 -12 1
-19z m90 0 c-3 -8 -6 -5 -6 6 -1 11 2 17 5 13 3 -3 4 -12 1 -19z m90 -25 c-3
-10 -5 -2 -5 17 0 19 2 27 5 18 2 -10 2 -26 0 -35z m-1869 30 c-21 -2 -57 -2
-80 0 -24 2 -7 4 37 4 44 0 63 -2 43 -4z m180 0 c-10 -2 -26 -2 -35 0 -10 3
-2 5 17 5 19 0 27 -2 18 -5z m-2248 -14 c0 -5 -70 -9 -157 -9 -86 0 -154 -2
-152 -5 3 -2 57 -5 121 -6 173 -3 222 -16 64 -18 -71 0 -127 -3 -125 -5 2 -2
51 -6 109 -9 58 -3 106 -6 108 -6 1 -1 2 -30 2 -66 0 -59 2 -65 20 -65 23 0
41 -31 22 -38 -7 -2 -13 -24 -13 -50 -1 -50 -4 -44 -14 31 -6 42 -9 47 -32 47
-21 0 -23 -3 -14 -14 8 -10 9 -16 1 -21 -5 -3 -10 -22 -10 -41 0 -27 4 -34 19
-34 10 0 21 -7 25 -15 3 -8 9 -15 13 -14 27 4 41 -4 45 -26 6 -27 -6 -34 -16
-10 -3 8 -12 15 -21 15 -21 0 -19 -20 3 -20 16 -1 16 -2 1 -13 -11 -9 -16 -23
-13 -45 3 -28 1 -32 -20 -32 -32 0 -51 -23 -32 -40 17 -13 40 -4 30 12 -5 8
-1 9 12 3 10 -4 29 -10 42 -13 15 -3 21 -10 18 -19 -3 -7 0 -13 7 -12 28 3 45
-2 51 -16 4 -12 0 -14 -22 -9 -15 4 -33 11 -39 17 -9 6 -13 6 -13 -2 0 -6 -16
-11 -35 -11 -25 0 -43 7 -59 25 -18 19 -25 22 -36 12 -10 -9 -11 -9 -6 1 4 6
5 12 1 12 -3 0 -9 -9 -13 -20 -7 -20 -9 -19 -30 9 -13 18 -17 28 -8 25 14 -5
40 49 29 60 -11 11 -21 6 -26 -14 -8 -31 -24 -24 -29 13 -3 17 -7 38 -9 45 -3
10 9 14 44 15 50 2 61 -8 25 -23 -22 -9 -22 -10 -2 -7 11 1 28 -4 38 -12 23
-19 25 -14 19 47 -6 54 -17 67 -26 31 -5 -20 -11 -21 -79 -18 -73 4 -73 4 -69
-21 1 -14 8 -28 13 -31 24 -15 -14 -19 -42 -4 -27 14 -30 20 -30 62 0 43 -1
46 -14 28 -7 -11 -12 -35 -11 -53 1 -23 -3 -36 -14 -39 -9 -4 -24 -13 -33 -21
-17 -14 -18 -9 -18 87 0 75 -4 106 -14 117 -21 20 -23 18 -19 -23 3 -47 -12
-76 -27 -53 -9 13 -11 13 -20 0 -7 -10 -12 -12 -17 -4 -9 13 -60 11 -53 -2 2
-5 10 -8 16 -6 6 1 14 -6 17 -17 3 -14 13 -20 33 -19 45 1 54 -1 54 -13 0 -11
-137 -9 -156 3 -13 9 -54 -1 -54 -13 0 -5 19 -10 43 -11 52 -2 106 -5 131 -7
11 0 16 -4 12 -8 -3 -4 -47 -6 -96 -5 -54 1 -90 -2 -90 -8 0 -6 24 -10 53 -10
28 0 59 -5 67 -10 12 -7 8 -10 -15 -10 -22 0 -26 -3 -17 -12 7 -7 12 -20 12
-29 0 -13 -7 -17 -32 -15 -48 4 -48 5 -48 21 0 9 9 15 25 15 14 0 25 4 25 10
0 5 -27 9 -59 9 -33 -1 -64 2 -70 6 -6 3 -11 0 -11 -7 -1 -18 -28 -53 -36 -45
-4 3 1 13 10 22 19 19 13 35 -14 35 -29 0 -50 11 -50 26 0 9 -12 14 -35 14
-32 0 -34 -2 -30 -31 3 -28 2 -30 -18 -25 -12 3 -28 6 -35 6 -10 0 -12 17 -10
68 3 61 5 67 26 70 13 2 25 -3 28 -12 7 -17 34 -22 34 -7 0 6 12 6 32 0 18 -5
39 -9 45 -9 18 0 16 27 -3 38 -16 9 -22 72 -9 110 3 13 2 22 -4 22 -13 0 -25
-63 -18 -99 5 -25 2 -30 -18 -33 -21 -4 -24 -1 -27 37 -4 55 0 75 18 75 8 0
14 10 14 25 0 22 5 25 38 27 20 0 45 1 55 0 9 -1 17 5 17 13 0 9 -9 15 -22 15
-19 1 -17 3 11 15 64 28 178 14 165 -20 -7 -18 7 -20 25 -2 10 10 14 9 22 -5
6 -10 14 -18 19 -18 15 0 12 36 -4 49 -11 9 -11 17 -2 36 13 28 26 33 26 9 0
-10 6 -14 14 -11 8 3 17 -1 20 -9 3 -8 12 -14 21 -14 11 0 15 10 15 35 0 30
-3 35 -24 35 -14 0 -28 5 -31 10 -5 8 64 10 219 9 126 0 226 -5 226 -10z
m-460 -9 c0 -5 -2 -10 -4 -10 -3 0 -8 5 -11 10 -3 6 -1 10 4 10 6 0 11 -4 11
-10z m4348 -21 c3 -8 1 -11 -3 -7 -4 4 -16 3 -25 -2 -13 -7 -20 -6 -23 4 -7
18 -2 23 25 21 12 -1 24 -8 26 -16z m-1618 5 c-34 -7 -110 -9 -110 -2 0 5 28
7 63 7 34 -1 55 -3 47 -5z m1546 -2 c-8 -8 -66 -8 -66 0 0 4 16 7 35 6 19 -1
33 -3 31 -6z m-866 -23 c0 -6 -4 -7 -10 -4 -5 3 -10 11 -10 16 0 6 5 7 10 4 6
-3 10 -11 10 -16z m1300 -9 c0 -5 -8 -10 -17 -10 -15 0 -16 2 -3 10 19 12 20
12 20 0z m-1990 -10 c0 -5 -22 -10 -50 -10 -27 0 -50 5 -50 10 0 6 23 10 50
10 28 0 50 -4 50 -10z m1594 -21 c-3 -5 -10 -7 -15 -3 -5 3 -7 10 -3 15 3 5
10 7 15 3 5 -3 7 -10 3 -15z m-1615 -25 c2 -2 -12 -4 -32 -4 -26 0 -37 -4 -37
-15 0 -11 12 -15 48 -16 26 0 40 -3 32 -7 -8 -4 -16 -14 -18 -23 -2 -13 6 -16
38 -13 22 1 42 -1 45 -5 2 -5 27 -6 55 -3 l50 5 0 -65 0 -65 -47 0 c-27 -1
-74 -4 -105 -8 l-58 -7 0 41 c0 40 1 40 30 35 26 -6 30 -4 30 16 0 20 -4 22
-31 16 -25 -5 -30 -3 -28 12 4 44 -1 62 -20 62 -11 0 -22 -8 -24 -17 -3 -10
-5 3 -6 29 l-1 47 38 -6 c20 -3 39 -7 41 -9z m1615 -25 c-3 -5 -10 -7 -15 -3
-5 3 -7 10 -3 15 3 5 10 7 15 3 5 -3 7 -10 3 -15z m-5316 -36 c-7 -9 -39 -13
-94 -13 -53 0 -84 -4 -84 -11 0 -7 29 -9 86 -7 79 3 85 2 80 -15 -2 -11 -2
-25 1 -33 5 -12 9 -12 26 3 11 10 17 12 13 6 -4 -7 -2 -13 4 -13 6 0 8 -5 5
-10 -4 -6 -11 -8 -16 -5 -5 4 -9 -1 -9 -9 0 -22 20 -19 51 7 31 26 43 54 26
61 -7 2 3 5 21 5 39 1 43 18 5 23 -16 2 -27 6 -25 11 1 4 4 7 7 7 3 0 18 0 34
0 21 0 28 -5 27 -17 0 -10 -5 -21 -10 -24 -5 -4 -9 -32 -9 -63 0 -39 -4 -56
-13 -56 -25 0 -23 -18 3 -45 15 -15 29 -22 31 -16 6 17 20 13 33 -10 8 -15 8
-24 0 -32 -8 -8 -11 -4 -11 14 0 13 -4 20 -8 14 -11 -16 -42 -18 -59 -4 -12
10 -16 10 -23 0 -4 -8 -13 -10 -20 -6 -8 5 -11 4 -6 -3 3 -6 2 -13 -3 -16 -5
-4 -11 4 -13 16 -2 17 -10 23 -31 25 -16 1 -35 7 -43 14 -15 12 -19 -1 -16
-43 2 -22 -16 -24 -24 -4 -5 12 -14 10 -49 -9 -41 -23 -43 -24 -59 -6 -13 14
-16 41 -16 134 0 110 -1 117 -20 117 -27 0 -25 18 3 22 12 2 66 3 119 3 76 0
94 -2 86 -12z m5316 -14 c-3 -5 -10 -7 -15 -3 -5 3 -7 10 -3 15 3 5 10 7 15 3
5 -3 7 -10 3 -15z m-1884 -24 c0 -14 -4 -25 -10 -25 -5 0 -7 7 -4 15 4 9 0 15
-7 15 -11 0 -11 3 1 10 20 13 20 13 20 -15z m1895 -23 c-3 -3 -11 0 -18 7 -9
10 -8 11 6 5 10 -3 15 -9 12 -12z m-5554 -12 c16 -9 19 -22 19 -76 l0 -65 -23
18 c-20 14 -24 28 -26 75 -2 61 -1 64 30 48z m5927 -60 l3 -39 -50 -7 c-55 -7
-70 -24 -21 -24 17 0 30 -5 30 -11 0 -7 -12 -10 -30 -7 -24 4 -30 1 -28 -11 4
-28 -13 -61 -30 -61 -15 0 -15 2 -2 10 13 8 12 11 -4 23 -19 14 -19 15 -1 24
17 10 17 11 -3 17 -12 4 -27 4 -32 1 -6 -4 -19 -4 -28 0 -9 4 -34 9 -56 10
-36 3 -38 2 -33 -21 5 -29 -6 -39 -22 -20 -9 10 -9 16 -1 21 16 10 -19 33 -42
27 -21 -5 -23 -13 -5 -32 6 -8 0 -5 -14 8 -16 14 -38 22 -60 21 -30 0 -32 -1
-11 -9 40 -17 23 -26 -53 -28 -74 -2 -75 -2 -75 23 0 27 -18 33 -39 13 -10
-11 -12 -9 -9 7 2 11 14 22 28 25 15 4 20 9 13 13 -6 4 -18 4 -27 1 -11 -4
-16 -1 -16 10 0 10 9 16 25 16 14 0 25 5 25 10 0 6 -11 10 -25 10 -23 0 -32
10 -20 22 3 3 142 4 308 2 l302 -4 3 -40z m-3838 10 c0 -6 -43 -10 -110 -10
-67 0 -110 4 -110 10 0 6 43 10 110 10 67 0 110 -4 110 -10z m318 5 c-3 -3
-69 -8 -146 -11 -102 -5 -142 -3 -142 5 0 8 45 11 147 11 80 0 144 -2 141 -5z
m47 -5 c-3 -5 -12 -7 -20 -3 -21 7 -19 13 6 13 11 0 18 -4 14 -10z m85 6 c0
-9 -30 -14 -35 -6 -4 6 3 10 14 10 12 0 21 -2 21 -4z m103 -3 c-7 -2 -19 -2
-25 0 -7 3 -2 5 12 5 14 0 19 -2 13 -5z m1595 -34 c-1 -29 -3 -30 -33 -25 -25
5 -34 3 -39 -10 -5 -13 -9 -14 -21 -4 -20 17 -9 30 25 30 38 0 60 9 60 26 0 8
2 14 4 14 3 0 4 -14 4 -31z m-4298 13 c0 -13 -12 -22 -22 -16 -10 6 -1 24 13
24 5 0 9 -4 9 -8z m1911 -57 c3 -79 8 -97 26 -91 8 3 11 1 8 -4 -9 -14 9 -12
23 2 9 9 12 8 12 -5 0 -9 -7 -17 -16 -17 -8 0 -20 -13 -25 -30 -6 -16 -17 -30
-25 -30 -11 0 -14 24 -14 122 0 125 7 159 11 53z m909 55 c0 -5 -2 -10 -4 -10
-3 0 -8 5 -11 10 -3 6 -1 10 4 10 6 0 11 -4 11 -10z m-2095 -20 c3 -5 19 -10
34 -10 33 0 42 -7 34 -26 -6 -17 -64 -19 -81 -2 -14 14 -16 48 -3 48 6 0 13
-4 16 -10z m1255 1 c0 -5 -11 -8 -25 -7 -33 1 -33 16 0 16 14 0 25 -4 25 -9z
m50 -1 c0 -5 -9 -10 -20 -10 -11 0 -20 5 -20 10 0 6 9 10 20 10 11 0 20 -4 20
-10z m130 0 c0 -5 -22 -10 -50 -10 -27 0 -50 5 -50 10 0 6 23 10 50 10 28 0
50 -4 50 -10z m75 0 c-3 -5 -19 -10 -36 -10 -16 0 -29 5 -29 10 0 6 16 10 36
10 21 0 33 -4 29 -10z m465 0 c0 -5 -28 -10 -62 -11 -47 -1 -57 -3 -38 -9 14
-4 42 -8 63 -9 21 -1 40 -7 42 -13 6 -14 60 -16 89 -3 12 5 21 4 26 -5 6 -9
10 -8 18 5 5 10 14 15 21 11 17 -11 13 -22 -14 -34 -29 -13 -32 -34 -9 -56 14
-15 14 -16 -3 -17 -10 -1 -25 -3 -33 -4 -8 -1 -23 -3 -34 -4 -14 -1 -16 -4 -7
-15 9 -11 7 -15 -8 -19 -11 -2 -25 0 -31 7 -10 8 -11 4 -6 -22 4 -24 2 -32 -7
-30 -36 13 -7 81 38 89 23 5 32 29 11 29 -9 0 -16 5 -16 10 0 6 -4 10 -10 10
-5 0 -7 -6 -4 -14 6 -16 -15 -33 -25 -19 -7 12 -41 13 -41 1 0 -27 -88 17 -96
48 -7 27 -14 30 -32 12 -15 -15 -26 -4 -19 17 4 8 15 15 26 15 11 0 23 5 26
10 4 6 -33 10 -104 10 -62 0 -112 4 -116 10 -4 7 57 10 174 10 114 0 181 -4
181 -10z m2454 -34 c-4 -18 3 -29 33 -51 21 -16 41 -34 45 -39 5 -7 8 -7 8 -1
0 6 5 3 10 -5 5 -8 13 -15 17 -15 20 -2 53 -17 53 -26 0 -5 -3 -8 -7 -8 -5 1
-12 0 -18 -1 -5 -2 -54 -4 -107 -4 -75 -1 -99 2 -103 13 -4 10 1 12 15 8 14
-4 23 0 27 11 12 31 43 43 43 16 0 -8 4 -13 9 -9 13 7 10 45 -4 46 -31 3 -63
-4 -87 -22 -27 -19 -27 -19 -42 3 -23 32 -20 47 10 58 17 7 24 15 20 25 -3 8
-1 17 4 20 6 4 10 2 10 -3 0 -6 8 -9 18 -8 10 0 16 -6 16 -16 -1 -10 2 -15 7
-12 5 3 9 16 9 30 0 14 4 22 10 19 6 -3 8 -16 4 -29z m-5159 14 c3 -5 1 -10
-4 -10 -6 0 -11 5 -11 10 0 6 2 10 4 10 3 0 8 -4 11 -10z m689 -6 c5 -13 4
-14 -7 -6 -8 7 -18 8 -22 4 -5 -4 -5 -1 -1 6 10 17 23 15 30 -4z m2736 1 c0
-8 -2 -15 -4 -15 -2 0 -6 7 -10 15 -3 8 -1 15 4 15 6 0 10 -7 10 -15z m970 -1
c0 -8 -5 -12 -10 -9 -6 4 -8 11 -5 16 9 14 15 11 15 -7z m-3763 -25 c-9 -5
-14 -16 -11 -23 3 -8 1 -17 -5 -20 -6 -4 -8 6 -6 24 2 16 -1 30 -6 30 -6 0 -7
5 -4 10 4 7 13 6 27 -1 19 -10 19 -12 5 -20z m2617 -17 c-4 -9 -7 -27 -7 -39
0 -34 -12 -28 -24 11 -9 28 -8 34 3 29 10 -4 14 3 14 23 1 25 2 27 11 11 6
-10 7 -26 3 -35z m1086 33 c0 -8 -2 -15 -4 -15 -2 0 -6 7 -10 15 -3 8 -1 15 4
15 6 0 10 -7 10 -15z m1658 -40 c-2 -21 -9 -40 -17 -43 -12 -4 -13 18 -2 98 1
2 6 -1 12 -7 6 -6 9 -27 7 -48z m-3958 33 c0 -4 -24 -8 -52 -7 -39 1 -46 3
-28 8 34 10 80 9 80 -1z m60 -4 c0 -2 -7 -4 -15 -4 -8 0 -15 4 -15 10 0 5 7 7
15 4 8 -4 15 -8 15 -10z m135 6 c4 -6 -9 -10 -32 -9 -38 1 -38 1 -8 9 17 4 31
8 32 9 1 0 5 -3 8 -9z m159 -2 c-3 -5 -29 -7 -57 -7 -43 1 -47 3 -22 8 39 9
85 8 79 -1z m554 -9 c17 -27 7 -37 -15 -17 -10 9 -24 13 -30 11 -14 -5 -18 9
-6 20 13 14 38 7 51 -14z m-795 4 c-7 -2 -19 -2 -25 0 -7 3 -2 5 12 5 14 0 19
-2 13 -5z m2467 -14 c0 -5 -7 -9 -15 -9 -9 0 -12 6 -9 15 6 15 24 11 24 -6z
m-4670 -11 c0 -18 -2 -20 -9 -8 -6 8 -7 18 -5 22 9 14 14 9 14 -14z m799 0
c30 2 51 0 55 -7 5 -7 -5 -11 -28 -11 -20 0 -36 -4 -36 -10 0 -5 14 -10 30
-10 17 0 30 -4 30 -9 0 -5 -29 -9 -65 -10 -37 0 -65 4 -65 9 0 6 14 10 30 10
17 0 30 5 30 10 0 6 -10 10 -23 10 -30 0 -39 9 -24 25 9 10 13 10 15 1 2 -9
18 -12 51 -8z m-1027 -10 c-7 -7 -12 -8 -12 -2 0 14 12 26 19 19 2 -3 -1 -11
-7 -17z m291 -85 c4 -46 3 -83 -2 -83 -17 0 -31 54 -31 123 0 61 2 69 14 57 8
-9 16 -49 19 -97z m3567 65 c0 -4 -7 -5 -16 -1 -12 4 -14 0 -9 -20 4 -13 2
-27 -3 -31 -5 -3 -10 15 -11 44 -1 48 0 49 19 33 11 -10 20 -21 20 -25z
m-2980 16 c0 -8 -5 -12 -10 -9 -6 4 -8 11 -5 16 9 14 15 11 15 -7z m1200 6
c-19 -13 -30 -13 -30 0 0 6 10 10 23 10 18 0 19 -2 7 -10z m2500 0 c0 -5 -4
-10 -10 -10 -5 0 -10 5 -10 10 0 6 5 10 10 10 6 0 10 -4 10 -10z m1535 -1 c4
-6 -3 -13 -15 -16 -15 -4 -18 -8 -10 -13 7 -4 9 -13 6 -19 -14 -22 -26 -10
-26 24 0 28 4 35 19 35 11 0 23 -5 26 -11z m-5525 -19 c0 -13 -5 -18 -15 -14
-16 7 -19 17 -8 27 12 13 23 7 23 -13z m1720 10 c0 -5 -18 -10 -40 -10 -22 0
-40 5 -40 10 0 6 18 10 40 10 22 0 40 -4 40 -10z m88 -42 c-3 -45 -6 -53 -23
-53 -17 0 -20 8 -23 53 -3 50 -2 52 23 52 25 0 26 -2 23 -52z m147 43 c-9 -9
-59 -15 -95 -12 -13 1 -13 2 0 11 19 13 107 13 95 1z m130 -1 c4 -6 -11 -10
-39 -10 -25 0 -48 5 -51 10 -4 6 11 10 39 10 25 0 48 -4 51 -10z m2015 -11 c0
-6 -4 -7 -10 -4 -5 3 -10 11 -10 16 0 6 5 7 10 4 6 -3 10 -11 10 -16z m26 -6
c-10 -10 -19 5 -10 18 6 11 8 11 12 0 2 -7 1 -15 -2 -18z m914 7 c44 0 58 -13
38 -37 -7 -9 -12 -25 -10 -36 2 -12 0 -17 -7 -12 -7 3 -10 19 -9 33 2 22 -2
28 -22 31 -25 3 -40 17 -39 36 0 6 3 4 6 -2 2 -7 22 -13 43 -13z m605 11 c3
-5 1 -13 -5 -16 -15 -9 -43 3 -35 15 8 13 32 13 40 1z m-492 -9 c16 -7 16 -8
-1 -23 -22 -19 -55 -7 -46 16 7 16 19 18 47 7z m-4890 -20 c5 -2 0 -10 -10
-17 -21 -16 -33 -11 -33 15 0 18 13 19 43 2z m4986 5 c8 -10 7 -14 -4 -14 -8
0 -15 6 -15 14 0 7 2 13 4 13 2 0 9 -6 15 -13z m-3506 -29 c5 -35 -4 -54 -22
-44 -12 8 -15 59 -4 69 13 14 21 6 26 -25z m300 23 c9 -1 17 -5 17 -9 0 -9
-54 -8 -80 1 -8 3 -22 8 -30 11 -8 3 5 3 30 1 25 -2 53 -4 63 -4z m80 -1 c-13
-5 -23 -17 -23 -26 0 -13 -3 -14 -15 -4 -19 16 1 39 35 39 25 0 25 0 3 -9z
m1017 0 c0 -5 -4 -10 -10 -10 -5 0 -10 5 -10 10 0 6 5 10 10 10 6 0 10 -4 10
-10z m232 -5 c5 -6 8 -6 8 2 0 7 7 10 15 7 22 -9 19 -19 -11 -39 -24 -15 -27
-15 -51 0 -17 12 -23 13 -18 4 4 -8 0 -7 -10 3 -9 9 -14 21 -11 27 9 14 68 11
78 -4z m288 11 c0 -3 -4 -8 -10 -11 -5 -3 -10 -1 -10 4 0 6 5 11 10 11 6 0 10
-2 10 -4z m83 -9 c3 -8 1 -20 -4 -28 -7 -11 -9 -10 -9 4 0 10 -4 15 -10 12
-13 -8 -32 4 -25 16 9 14 42 11 48 -4z m987 -13 c0 -14 -4 -23 -10 -19 -5 3
-10 15 -10 26 0 10 5 19 10 19 6 0 10 -12 10 -26z m733 12 c4 -10 1 -13 -8 -9
-8 3 -12 9 -9 14 7 12 11 11 17 -5z m-6046 -2 c-3 -3 -12 -4 -19 -1 -8 3 -5 6
6 6 11 1 17 -2 13 -5z m1693 2 c0 -2 -7 -6 -15 -10 -8 -3 -15 -1 -15 4 0 6 7
10 15 10 8 0 15 -2 15 -4z m410 -11 c15 -18 -1 -20 -18 -3 -9 9 -12 8 -12 -7
0 -16 -2 -17 -9 -5 -19 29 16 43 39 15z m354 -16 c-7 -13 -31 -11 -40 2 -9 16
18 30 33 17 7 -6 10 -14 7 -19z m63 -14 c-10 -11 -15 -10 -30 6 -25 27 -12 43
18 23 19 -13 22 -18 12 -29z m315 23 c14 -17 18 -18 14 -6 -8 27 6 28 37 4 22
-18 28 -30 25 -51 -3 -30 -28 -48 -28 -21 0 9 5 16 10 16 6 0 10 5 10 10 0 6
-9 10 -20 10 -11 0 -20 5 -20 10 0 6 -3 9 -7 8 -11 -3 -53 25 -53 34 0 14 11
9 32 -14z m648 -4 c0 -8 -8 -13 -20 -11 -25 4 -38 17 -17 17 10 0 17 5 17 11
0 5 5 7 10 4 6 -3 10 -13 10 -21z m925 16 c3 -6 -1 -7 -9 -4 -18 7 -21 14 -7
14 6 0 13 -4 16 -10z m89 -52 c-14 -25 -19 -29 -22 -16 -3 18 31 73 36 58 2
-5 -5 -24 -14 -42z m-1863 32 c25 -14 24 -30 -1 -30 -11 0 -20 -4 -20 -10 0
-5 4 -10 8 -10 5 0 9 -6 10 -12 7 -57 6 -63 -8 -60 -8 2 -23 4 -32 5 -10 1
-18 5 -18 9 0 5 -9 4 -20 -2 -11 -6 -20 -7 -20 -1 0 5 7 12 15 15 9 3 15 13
13 22 -2 9 3 19 10 21 7 3 12 -4 12 -16 0 -22 35 -47 44 -32 3 5 -3 19 -13 33
-13 15 -17 33 -14 51 6 30 7 31 34 17z m89 -12 c0 -6 -6 -5 -15 2 -8 7 -15 14
-15 16 0 2 7 1 15 -2 8 -4 15 -11 15 -16z m222 -2 c3 -15 0 -27 -8 -30 -10 -4
-14 3 -14 24 0 36 16 40 22 6z m443 14 c-3 -5 -10 -10 -16 -10 -5 0 -9 5 -9
10 0 6 7 10 16 10 8 0 12 -4 9 -10z m895 0 c0 -5 -7 -10 -16 -10 -8 0 -12 5
-9 10 3 6 10 10 16 10 5 0 9 -4 9 -10z m557 4 c-3 -3 -12 -4 -19 -1 -8 3 -5 6
6 6 11 1 17 -2 13 -5z m1893 2 c0 -3 -4 -8 -10 -11 -5 -3 -10 -1 -10 4 0 6 5
11 10 11 6 0 10 -2 10 -4z m-6260 -37 c0 -22 -13 -25 -29 -6 -8 10 -7 17 1 25
15 15 28 6 28 -19z m2682 19 c-9 -9 -15 -9 -24 0 -9 9 -7 12 12 12 19 0 21 -3
12 -12z m358 2 c0 -5 -4 -10 -10 -10 -5 0 -10 5 -10 10 0 6 5 10 10 10 6 0 10
-4 10 -10z m115 -61 c0 -61 -1 -64 -25 -66 -70 -4 -250 -2 -365 5 l-130 7 70
11 c39 7 75 8 80 3 14 -10 40 5 31 19 -3 6 -15 8 -25 5 -10 -3 -22 0 -25 6 -4
7 1 11 14 11 11 0 29 5 39 12 15 9 25 9 46 0 14 -7 37 -12 50 -12 13 0 26 -4
30 -10 7 -11 34 -2 59 22 24 22 40 23 56 3 7 -8 19 -15 26 -15 8 0 14 -9 14
-20 0 -11 5 -20 10 -20 6 0 10 9 10 19 0 11 3 26 6 35 5 13 -1 16 -25 16 -17
0 -31 4 -31 9 0 9 59 30 75 27 6 -2 10 -32 10 -67z m-3683 31 c-3 -24 -8 -29
-22 -25 -20 6 -36 -31 -16 -39 8 -3 8 -5 -1 -5 -6 -1 -15 4 -18 10 -10 16 4
59 19 59 8 0 16 7 20 15 10 27 23 16 18 -15z m5811 16 c3 -8 -1 -17 -9 -20
-23 -9 -24 -8 -24 14 0 23 25 27 33 6z m77 -2 c0 -17 -22 -14 -28 4 -2 7 3 12
12 12 9 0 16 -7 16 -16z m-3256 -6 c-3 -4 -9 -8 -15 -8 -5 0 -9 4 -9 8 0 5 7
9 15 9 8 0 12 -4 9 -9z m636 -4 c0 -8 -5 -12 -10 -9 -6 4 -8 11 -5 16 9 14 15
11 15 -7z m-2623 -11 c-14 -14 -19 -15 -29 -4 -11 10 -10 11 3 6 10 -4 20 -2
24 4 3 6 9 11 13 11 3 0 -1 -8 -11 -17z m2082 -24 c-8 -5 -17 -3 -21 4 -12 18
-10 25 10 29 21 4 29 -21 11 -33z m751 31 c0 -5 -4 -10 -10 -10 -5 0 -10 5
-10 10 0 6 5 10 10 10 6 0 10 -4 10 -10z m40 0 c0 -5 -4 -10 -10 -10 -5 0 -10
5 -10 10 0 6 5 10 10 10 6 0 10 -4 10 -10z m465 1 c10 -17 -11 -21 -31 -6 -18
14 -18 14 3 15 12 0 24 -4 28 -9z m-2730 -22 c-10 -15 -25 -10 -19 6 4 8 10
12 15 9 5 -3 7 -10 4 -15z m500 11 c-28 -12 -47 -12 -40 0 3 6 18 10 33 9 24
0 25 -1 7 -9z m45 0 c0 -5 -2 -10 -4 -10 -3 0 -8 5 -11 10 -3 6 -1 10 4 10 6
0 11 -4 11 -10z m740 -11 c0 -11 -3 -11 -24 -3 -23 9 -20 23 4 17 11 -3 20 -9
20 -14z m556 4 c0 -10 5 -18 12 -19 25 -3 27 -6 7 -13 -15 -6 -22 -3 -31 13
-11 22 -9 36 5 36 5 0 8 -8 7 -17z m-2406 -29 c0 -8 -4 -14 -10 -14 -5 0 -10
9 -10 21 0 11 5 17 10 14 6 -3 10 -13 10 -21z m1658 8 c2 -7 -2 -10 -12 -6 -9
3 -16 11 -16 16 0 13 23 5 28 -10z m667 8 c3 -5 1 -10 -4 -10 -6 0 -11 5 -11
10 0 6 2 10 4 10 3 0 8 -4 11 -10z m2558 -1 c108 0 201 3 206 6 6 3 12 1 16
-5 4 -7 13 -7 26 1 17 9 21 7 26 -10 4 -17 13 -21 52 -21 38 -1 43 -2 27 -11
-12 -7 -80 -11 -183 -10 -116 1 -169 -2 -179 -10 -11 -9 -18 -9 -26 -1 -8 8
-17 8 -30 1 -16 -9 -25 -6 -42 10 -28 26 -36 26 -36 0 0 -11 -4 -17 -10 -14
-17 11 -11 -8 11 -31 l21 -22 34 20 c33 19 36 19 60 3 19 -12 29 -14 37 -6 17
17 87 14 87 -4 0 -10 -10 -15 -30 -15 -37 0 -60 -33 -33 -49 14 -8 15 -11 3
-11 -8 -1 -23 -3 -33 -5 -14 -3 -16 0 -7 10 8 10 8 19 -2 34 -16 26 -31 22
-38 -10 -6 -26 -53 -42 -49 -17 3 28 -2 46 -13 45 -36 -1 -49 4 -42 16 4 6 -4
1 -19 -11 -17 -16 -32 -22 -45 -18 -25 8 -22 42 4 39 17 -1 33 12 34 28 0 3
-11 11 -24 17 -17 7 -27 7 -35 -1 -6 -6 -14 -7 -18 -3 -4 4 -2 11 6 15 8 6 2
11 -21 16 -18 4 -39 7 -45 6 -14 -2 -17 11 -5 23 4 5 32 5 62 2 30 -4 144 -7
253 -7z m-513 -20 c0 -5 -4 -9 -10 -9 -5 0 -10 7 -10 16 0 8 5 12 10 9 6 -3
10 -10 10 -16z m150 5 c0 -19 41 -34 70 -27 17 4 21 2 18 -8 -3 -8 -16 -13
-29 -13 -13 1 -27 -3 -30 -9 -12 -18 -41 1 -34 23 7 22 -14 36 -40 26 -12 -4
-13 -10 -3 -31 6 -14 17 -25 23 -25 7 0 18 -7 26 -16 10 -13 10 -17 -1 -24 -9
-5 -19 -5 -26 1 -8 7 -14 6 -19 -1 -3 -5 -11 -10 -17 -10 -7 0 -7 4 0 13 8 10
9 33 3 70 0 4 -8 7 -16 7 -8 0 -15 5 -15 10 0 6 -5 10 -11 10 -8 0 -8 -4 -2
-12 6 -7 13 -22 17 -33 7 -18 5 -18 -14 3 -16 17 -25 20 -40 12 -12 -7 -21 -7
-25 0 -3 6 4 10 16 10 12 0 19 3 16 7 -14 13 25 28 78 30 43 1 55 -1 55 -13z
m1480 -4 c0 -9 -117 -17 -162 -11 -15 1 -29 8 -31 15 -3 8 23 10 94 8 55 -2
99 -7 99 -12z m-6389 0 c10 -6 19 -15 19 -21 0 -5 -13 -3 -30 6 -16 9 -30 18
-30 20 0 8 20 6 41 -5z m724 0 c5 -8 11 -8 20 0 8 7 16 7 19 2 8 -14 -20 -34
-41 -30 -10 2 -19 11 -21 21 -4 19 13 23 23 7z m1549 1 c8 -12 -3 -41 -15 -41
-5 0 -9 11 -9 25 0 25 14 34 24 16z m-204 -51 l-8 -35 -1 45 c-1 27 3 40 8 35
6 -6 6 -25 1 -45z m407 28 c-3 -8 -6 -5 -6 6 -1 11 2 17 5 13 3 -3 4 -12 1
-19z m296 -51 c-7 -85 -13 -85 -13 2 0 43 4 70 10 66 5 -3 7 -33 3 -68z
m-2703 53 c0 -5 -4 -10 -10 -10 -5 0 -10 5 -10 10 0 6 5 10 10 10 6 0 10 -4
10 -10z m2630 0 c0 -5 -5 -10 -11 -10 -5 0 -7 5 -4 10 3 6 8 10 11 10 2 0 4
-4 4 -10z m-2284 -16 c-3 -9 -6 -18 -6 -20 0 -2 -4 -4 -9 -4 -5 0 -7 9 -4 20
3 11 10 20 15 20 6 0 7 -7 4 -16z m964 3 c0 -7 10 -17 22 -22 39 -18 33 -35
-11 -36 -23 -1 -46 -2 -53 -3 -6 -1 -15 11 -19 27 -6 22 -4 27 12 27 10 0 19
5 19 10 0 6 7 10 15 10 8 0 15 -6 15 -13z m1370 3 c0 -5 -4 -10 -9 -10 -6 0
-13 5 -16 10 -3 6 1 10 9 10 9 0 16 -4 16 -10z m3155 0 c3 -5 -1 -10 -10 -10
-9 0 -13 5 -10 10 3 6 8 10 10 10 2 0 7 -4 10 -10z m52 -7 c6 -15 7 -15 13 2
4 10 9 14 13 9 3 -6 2 -16 -2 -22 -6 -10 -13 -10 -34 1 -15 8 -24 17 -20 20
11 12 23 8 30 -10z m83 6 c0 -6 10 -19 21 -28 18 -15 20 -21 10 -39 -15 -29
-27 -28 -56 4 -30 32 -30 32 -8 56 18 20 33 24 33 7z m-6093 -5 c-3 -3 -12 -4
-19 -1 -8 3 -5 6 6 6 11 1 17 -2 13 -5z m123 -8 c0 -3 -4 -8 -10 -11 -5 -3
-10 -1 -10 4 0 6 5 11 10 11 6 0 10 -2 10 -4z m2360 -6 c0 -5 -5 -10 -11 -10
-5 0 -7 5 -4 10 3 6 8 10 11 10 2 0 4 -4 4 -10z m3840 0 c0 -5 -9 -10 -20 -10
-11 0 -20 5 -20 10 0 6 9 10 20 10 11 0 20 -4 20 -10z m-870 -31 c0 -11 -4
-17 -10 -14 -5 3 -10 13 -10 21 0 8 5 14 10 14 6 0 10 -9 10 -21z m-3910 1 c0
-5 -8 -10 -17 -10 -15 0 -16 2 -3 10 19 12 20 12 20 0z m4277 4 c-3 -3 -12 -4
-19 -1 -8 3 -5 6 6 6 11 1 17 -2 13 -5z m-230 -26 c-3 -8 -6 -5 -6 6 -1 11 2
17 5 13 3 -3 4 -12 1 -19z m-5589 -36 c6 -2 12 4 12 13 0 13 4 14 21 4 15 -8
18 -14 10 -22 -13 -13 -14 -27 -2 -27 5 0 12 11 15 25 8 32 29 32 50 0 22 -34
21 -35 -24 -35 -36 0 -40 -2 -40 -25 0 -16 -6 -25 -15 -25 -9 0 -15 6 -14 13
3 26 -14 57 -32 57 -14 0 -19 7 -19 28 0 37 13 50 20 21 3 -12 11 -24 18 -27z
m5022 38 c0 -5 -2 -10 -4 -10 -3 0 -8 5 -11 10 -3 6 -1 10 4 10 6 0 11 -4 11
-10z m500 0 c0 -5 -4 -10 -10 -10 -5 0 -10 5 -10 10 0 6 5 10 10 10 6 0 10 -4
10 -10z m30 6 c0 -3 -4 -8 -10 -11 -5 -3 -10 -1 -10 4 0 6 5 11 10 11 6 0 10
-2 10 -4z m-4080 -16 c0 -5 -4 -10 -10 -10 -5 0 -10 5 -10 10 0 6 5 10 10 10
6 0 10 -4 10 -10z m3514 -5 c-4 -8 -13 -15 -22 -15 -13 0 -12 3 4 15 24 18 25
18 18 0z m-5204 -26 c0 -6 -4 -7 -10 -4 -5 3 -10 11 -10 16 0 6 5 7 10 4 6 -3
10 -11 10 -16z m3149 -13 c10 -12 8 -19 -8 -35 -12 -12 -18 -27 -15 -36 6 -13
-1 -15 -39 -13 -28 2 -43 7 -38 13 3 6 6 24 5 40 -1 17 4 33 10 37 19 13 73 9
85 -6z m191 -1 c11 -13 9 -19 -9 -34 -27 -24 -27 -39 2 -44 12 -2 -7 -5 -43
-5 -41 -1 -60 2 -51 7 9 6 12 19 7 43 -3 19 -3 37 1 41 12 13 81 7 93 -8z
m249 5 c22 -11 26 -64 5 -56 -8 3 -14 -1 -14 -8 0 -9 16 -17 40 -21 57 -10 38
-27 -26 -24 -29 2 -57 0 -61 -4 -16 -17 -23 -3 -23 51 0 32 3 62 7 65 10 10
52 8 72 -3z m-3187 -22 c-6 -6 -16 -7 -22 -3 -9 6 -9 9 1 16 17 10 34 0 21
-13z m5069 -41 c-14 28 -14 33 3 33 23 0 28 -17 13 -46 l-14 -26 -36 44 c-49
60 -47 67 4 15 23 -24 36 -33 30 -20z m-3341 49 c0 -3 -4 -8 -10 -11 -5 -3
-10 -1 -10 4 0 6 5 11 10 11 6 0 10 -2 10 -4z m2696 -12 c-5 -14 -4 -15 9 -4
8 7 15 8 15 2 0 -16 -33 -24 -41 -10 -9 14 -3 28 13 28 5 0 7 -7 4 -16z m797
-14 c-3 -10 -24 -28 -47 -40 l-41 -21 42 41 c48 45 53 48 46 20z m-5282 -7
c11 -77 3 -97 -36 -87 -25 6 -26 8 -11 19 12 9 15 22 11 44 -4 26 -2 31 15 31
11 0 20 -3 21 -7z m40 -20 c-8 -15 -10 -15 -11 -2 0 17 10 32 18 25 2 -3 -1
-13 -7 -23z m4129 18 c0 -5 -7 -11 -15 -15 -18 -6 -20 -46 -3 -46 6 0 20 -8
30 -17 16 -14 22 -15 40 -4 11 7 22 11 23 9 7 -7 -11 -24 -39 -36 -26 -12 -33
-11 -57 7 -33 24 -57 27 -65 7 -5 -12 -34 -15 -64 -7 -3 1 11 15 30 31 19 16
29 30 23 30 -7 0 -13 4 -13 9 0 5 8 7 18 5 9 -3 31 4 47 15 34 22 45 25 45 12z
m541 -29 c16 2 29 -1 31 -7 2 -5 -12 -11 -29 -12 -18 -1 -33 3 -33 9 0 6 -9 8
-20 5 -23 -6 -26 7 -7 28 10 11 13 10 21 -6 7 -14 18 -19 37 -17z m496 16 c-3
-8 -6 -5 -6 6 -1 11 2 17 5 13 3 -3 4 -12 1 -19z m-1020 -10 c-3 -8 -6 -5 -6
6 -1 11 2 17 5 13 3 -3 4 -12 1 -19z m68 12 c3 -5 -1 -10 -10 -10 -9 0 -13 5
-10 10 3 6 8 10 10 10 2 0 7 -4 10 -10z m693 -1 c-2 -6 -8 -10 -13 -10 -5 0
-11 4 -13 10 -2 6 4 11 13 11 9 0 15 -5 13 -11z m-4515 -24 c-7 -21 -13 -19
-13 6 0 11 4 18 10 14 5 -3 7 -12 3 -20z m4597 15 c12 -8 11 -10 -7 -10 -13 0
-23 5 -23 10 0 13 11 13 30 0z m-700 -12 c0 -5 -13 -8 -29 -8 -17 0 -33 -5
-36 -11 -4 -6 -13 -8 -20 -5 -8 3 -16 0 -18 -7 -2 -7 -8 -9 -12 -5 -13 13 16
39 36 33 11 -4 19 -2 19 3 0 5 13 9 30 8 16 -1 30 -4 30 -8z m-1293 -35 c-3
-10 -5 -4 -5 12 0 17 2 24 5 18 2 -7 2 -21 0 -30z m3068 -4 c-7 -11 -35 -12
-35 -1 0 4 9 8 20 9 11 1 18 -2 15 -8z m-1410 -17 c-2 -3 1 -14 7 -25 9 -17 7
-24 -12 -39 -12 -10 -30 -18 -39 -17 -11 0 -10 3 7 11 24 12 28 23 11 34 -6 3
-15 1 -19 -6 -4 -7 -10 -8 -13 -3 -8 13 27 50 47 50 9 0 14 -2 11 -5z m1525
-4 c0 -4 -5 -26 -12 -47 -10 -31 -18 -40 -39 -43 -18 -3 -30 2 -38 14 -10 16
-8 20 14 28 28 11 33 28 9 37 -11 4 -12 8 -4 13 15 10 70 8 70 -2z m-6486 -23
c9 -26 7 -29 -24 -28 -49 2 -51 3 -45 13 4 6 10 8 15 5 4 -3 10 2 14 10 7 19
32 19 40 0z m-91 -12 c-9 -24 -40 -34 -53 -18 -9 11 -10 15 -1 15 7 0 10 3 8
8 -3 4 8 7 23 8 20 1 27 -3 23 -13z m1977 -3 c0 -5 8 -11 18 -13 10 -3 6 -5
-10 -6 -16 0 -28 1 -28 3 0 2 -3 12 -6 20 -5 12 -2 15 10 10 9 -3 16 -10 16
-14z m2643 0 c12 0 17 -6 15 -17 -2 -11 -11 -17 -22 -15 -13 3 -17 -1 -13 -12
3 -8 2 -18 -3 -21 -6 -4 -10 4 -11 17 0 13 -3 34 -5 48 -4 19 -2 22 8 12 6 -6
20 -12 31 -12z m337 0 c0 -5 -8 -10 -17 -10 -15 0 -16 2 -3 10 19 12 20 12 20
0z m1475 -30 c-5 -8 -11 -8 -17 -2 -6 6 -7 16 -3 22 5 8 11 8 17 2 6 -6 7 -16
3 -22z m-2010 0 c4 -6 -7 -10 -25 -10 -18 0 -29 4 -25 10 3 6 15 10 25 10 10
0 22 -4 25 -10z m785 0 c0 -5 -2 -10 -4 -10 -3 0 -8 5 -11 10 -3 6 -1 10 4 10
6 0 11 -4 11 -10z m310 -21 c0 -5 -4 -9 -8 -9 -5 0 -9 7 -9 15 0 8 4 12 9 9 4
-3 8 -9 8 -15z m-5410 1 c0 -5 -2 -10 -4 -10 -3 0 -8 5 -11 10 -3 6 -1 10 4
10 6 0 11 -4 11 -10z m4600 6 c0 -3 -4 -8 -10 -11 -5 -3 -10 -1 -10 4 0 6 5
11 10 11 6 0 10 -2 10 -4z m-1945 -16 c3 -5 -1 -10 -9 -10 -9 0 -16 5 -16 10
0 6 4 10 9 10 6 0 13 -4 16 -10z m1365 -10 c0 -5 -7 -10 -15 -10 -8 0 -15 -5
-15 -12 0 -6 -3 -8 -6 -5 -8 8 14 37 27 37 5 0 9 -4 9 -10z m813 -41 c-8 -8
-13 -7 -18 2 -5 8 -4 10 3 5 7 -4 12 -2 12 5 0 7 3 9 7 6 4 -4 2 -12 -4 -18z"></path>
<path d="M3975 880 c-4 -6 -3 -16 3 -22 6 -6 12 -6 17 2 4 6 3 16 -3 22 -6 6
-12 6 -17 -2z"></path>
<path d="M4050 870 c0 -5 7 -10 15 -10 8 0 15 5 15 10 0 6 -7 10 -15 10 -8 0
-15 -4 -15 -10z"></path>
<path d="M3970 830 c0 -5 7 -10 15 -10 8 0 15 5 15 10 0 6 -7 10 -15 10 -8 0
-15 -4 -15 -10z"></path>
<path d="M4040 830 c0 -5 9 -10 20 -10 11 0 20 5 20 10 0 6 -9 10 -20 10 -11
0 -20 -4 -20 -10z"></path>
<path d="M4330 813 c0 -10 4 -25 10 -33 8 -12 10 -12 16 3 7 20 -1 47 -16 47
-5 0 -10 -8 -10 -17z"></path>
<path d="M4040 790 c0 -5 9 -10 20 -10 11 0 20 5 20 10 0 6 -9 10 -20 10 -11
0 -20 -4 -20 -10z"></path>
<path d="M4306 785 c-9 -26 -7 -32 5 -12 6 10 9 21 6 23 -2 3 -7 -2 -11 -11z"></path>
<path d="M4240 691 c0 -5 7 -11 15 -15 8 -3 15 -1 15 3 0 5 -7 11 -15 15 -8 3
-15 1 -15 -3z"></path>
<path d="M4375 679 c-10 -15 1 -23 20 -15 9 3 13 10 10 16 -8 13 -22 13 -30
-1z"></path>
<path d="M1924 986 c-6 -17 12 -56 26 -56 6 0 10 16 10 35 0 25 -4 35 -15 35
-9 0 -18 -6 -21 -14z"></path>
<path d="M2008 943 c-2 -23 -8 -28 -26 -25 -15 1 -22 -2 -20 -10 3 -7 27 -15
54 -18 l49 -5 3 -82 c3 -81 3 -83 27 -83 l25 0 0 125 0 125 -54 0 c-52 0 -55
-1 -58 -27z"></path>
<path d="M1640 927 c0 -7 5 -18 11 -24 16 -16 1 -35 -24 -31 -12 1 -28 -1 -35
-6 -7 -4 -19 -3 -27 4 -17 14 -32 -7 -16 -23 6 -6 11 -27 11 -47 l0 -37 91 3
c50 2 94 6 97 9 6 5 -30 9 -60 6 -10 -1 -18 4 -18 13 0 9 9 16 20 16 11 0 20
3 20 8 0 4 -21 6 -47 6 -56 -1 -64 2 -57 20 4 10 21 13 55 12 35 -2 49 1 49
11 0 7 -6 12 -12 11 -8 -2 -14 10 -16 30 -2 24 -8 32 -23 32 -10 0 -19 -6 -19
-13z m20 -132 c0 -10 -9 -14 -25 -13 -14 1 -25 7 -25 13 0 6 11 12 25 13 16 1
25 -3 25 -13z"></path>
<path d="M1887 879 c-10 -6 -24 -8 -31 -6 -7 3 -19 1 -27 -4 -12 -7 -12 -9 1
-10 8 -1 23 0 33 0 12 2 19 -7 23 -29 5 -24 11 -30 28 -28 17 2 21 10 21 43 0
43 -15 53 -48 34z"></path>
<path d="M1461 814 c0 -11 3 -14 6 -6 3 7 2 16 -1 19 -3 4 -6 -2 -5 -13z"></path>
<path d="M1735 819 c-8 -12 8 -16 35 -9 l25 6 -28 6 c-15 3 -30 2 -32 -3z"></path>
<path d="M1461 774 c0 -11 3 -14 6 -6 3 7 2 16 -1 19 -3 4 -6 -2 -5 -13z"></path>
<path d="M1560 724 c0 -17 22 -14 28 4 2 7 -3 12 -12 12 -9 0 -16 -7 -16 -16z"></path>
<path d="M1613 728 c-5 -10 -8 -9 50 -11 26 -1 47 3 47 8 0 12 -90 14 -97 3z"></path>
<path d="M1723 683 c9 -2 23 -2 30 0 6 3 -1 5 -18 5 -16 0 -22 -2 -12 -5z"></path>
<path d="M1420 670 c0 -5 13 -10 29 -10 17 0 33 5 36 10 4 6 -8 10 -29 10 -20
0 -36 -4 -36 -10z"></path>
<path d="M1500 673 c0 -6 10 -15 23 -21 l22 -11 -22 0 c-27 -1 -31 -21 -5 -21
9 -1 41 -3 70 -6 32 -4 52 -2 52 5 0 5 -19 11 -42 13 -25 2 -41 7 -38 13 3 6
22 8 43 7 22 -2 37 1 37 7 0 6 -17 11 -39 11 -21 0 -53 3 -70 6 -18 4 -31 2
-31 -3z"></path>
<path d="M2170 605 c0 -8 2 -15 4 -15 2 0 6 7 10 15 3 8 1 15 -4 15 -6 0 -10
-7 -10 -15z"></path>
<path d="M2246 511 c-29 -11 -4 -22 33 -15 17 4 34 11 37 15 6 11 -43 11 -70
0z"></path>
<path d="M4592 780 c0 -14 2 -19 5 -12 2 6 2 18 0 25 -3 6 -5 1 -5 -13z"></path>
<path d="M936 811 c-4 -5 -2 -12 3 -15 5 -4 12 -2 15 3 4 5 2 12 -3 15 -5 4
-12 2 -15 -3z"></path>
<path d="M656 625 c4 -8 8 -15 10 -15 2 0 4 7 4 15 0 8 -4 15 -10 15 -5 0 -7
-7 -4 -15z"></path>
<path d="M5980 740 c0 -5 16 -10 35 -10 19 0 35 5 35 10 0 6 -16 10 -35 10
-19 0 -35 -4 -35 -10z"></path>
<path d="M6070 740 c0 -5 17 -10 38 -9 33 1 34 2 12 9 -36 11 -50 11 -50 0z"></path>
<path d="M6160 730 c0 -5 16 -10 35 -10 19 0 35 5 35 10 0 6 -16 10 -35 10
-19 0 -35 -4 -35 -10z"></path>
<path d="M6250 730 c0 -6 17 -10 37 -10 43 0 41 5 -4 13 -19 4 -33 2 -33 -3z"></path>
<path d="M6330 720 c0 -5 18 -10 41 -10 24 0 38 4 34 10 -3 6 -22 10 -41 10
-19 0 -34 -4 -34 -10z"></path>
<path d="M6450 710 c20 -5 39 -5 45 1 5 5 -8 9 -35 8 l-45 -1 35 -8z"></path>
<path d="M5975 700 c-4 -6 12 -10 42 -10 35 0 44 3 33 10 -20 13 -67 13 -75 0z"></path>
<path d="M6088 693 c12 -2 30 -2 40 0 9 3 -1 5 -23 4 -22 0 -30 -2 -17 -4z"></path>
<path d="M6160 690 c0 -5 16 -10 35 -10 19 0 35 5 35 10 0 6 -16 10 -35 10
-19 0 -35 -4 -35 -10z"></path>
<path d="M6275 689 c-22 -3 -35 -7 -30 -8 94 -15 141 -18 154 -11 14 8 14 9 1
13 -30 10 -86 13 -125 6z"></path>
<path d="M5993 653 c15 -2 37 -2 50 0 12 2 0 4 -28 4 -27 0 -38 -2 -22 -4z"></path>
<path d="M3168 632 c-38 -23 -38 -47 0 -37 15 4 32 8 39 9 21 4 26 15 13 31
-15 18 -17 18 -52 -3z"></path>
<path d="M3315 610 c3 -5 8 -10 11 -10 2 0 4 5 4 10 0 6 -5 10 -11 10 -5 0 -7
-4 -4 -10z"></path>
<path d="M5741 563 c-9 -10 -10 -18 -3 -25 12 -12 32 -2 32 17 0 21 -13 25
-29 8z"></path>
<path d="M3753 458 c4 -21 26 -39 28 -21 0 4 2 16 4 26 2 11 -3 17 -16 17 -14
0 -18 -6 -16 -22z"></path>
<path d="M3702 451 c-11 -7 -11 -9 2 -14 10 -4 16 -1 16 8 0 17 -1 17 -18 6z"></path>
<path d="M1320 1930 c0 -11 5 -20 10 -20 6 0 10 9 10 20 0 11 -4 20 -10 20 -5
0 -10 -9 -10 -20z"></path>
<path d="M3330 1882 c0 -18 271 -35 277 -17 2 6 -25 11 -64 11 -38 1 -101 5
-140 9 -48 5 -73 4 -73 -3z"></path>
<path d="M1320 1860 c0 -5 5 -10 10 -10 6 0 10 5 10 10 0 6 -4 10 -10 10 -5 0
-10 -4 -10 -10z"></path>
<path d="M3640 1680 c0 -107 4 -170 10 -170 6 0 10 63 10 170 0 107 -4 170
-10 170 -6 0 -10 -63 -10 -170z"></path>
<path d="M4708 1813 c-45 -5 -61 -22 -50 -54 l9 -23 6 26 c5 20 15 27 44 31
21 4 42 2 50 -5 10 -8 13 -6 13 11 0 14 -6 20 -17 19 -10 -1 -35 -3 -55 -5z"></path>
<path d="M3455 1780 c3 -11 2 -20 -4 -20 -5 0 -12 8 -14 18 -3 9 -5 -12 -6
-48 -1 -59 1 -66 19 -66 11 0 20 4 20 8 0 4 -7 8 -15 8 -8 0 -15 7 -15 16 0
10 6 14 15 10 8 -3 15 -1 15 4 0 6 -7 10 -15 10 -8 0 -15 7 -15 15 0 8 7 15
15 15 9 0 15 9 15 25 0 14 -5 25 -11 25 -6 0 -8 -9 -4 -20z"></path>
<path d="M2590 1780 c0 -5 5 -10 10 -10 6 0 10 5 10 10 0 6 -4 10 -10 10 -5 0
-10 -4 -10 -10z"></path>
<path d="M3544 1665 c0 -71 1 -99 3 -62 2 37 2 96 0 130 -2 34 -3 4 -3 -68z"></path>
<path d="M3560 1770 c0 -11 7 -20 15 -20 8 0 15 9 15 20 0 11 -7 20 -15 20 -8
0 -15 -9 -15 -20z"></path>
<path d="M2619 1753 c-1 -4 -1 -11 0 -15 0 -5 -10 -8 -23 -8 -22 0 -41 -21
-29 -33 8 -9 33 4 27 14 -3 5 7 9 21 9 15 0 24 -4 20 -10 -7 -11 2 -13 58 -10
20 1 37 -3 37 -8 0 -6 9 -8 19 -5 16 4 19 -1 19 -32 0 -31 -3 -36 -19 -32 -10
3 -22 1 -25 -4 -3 -5 6 -9 20 -9 17 0 26 -6 26 -16 0 -11 -6 -13 -19 -9 -11 3
-22 1 -26 -5 -4 -6 4 -10 19 -10 17 0 26 -6 26 -16 0 -11 -6 -13 -19 -9 -11 3
-22 1 -26 -5 -4 -6 6 -10 25 -10 21 0 30 -4 27 -12 -2 -7 -13 -13 -24 -13 -12
0 -25 -3 -29 -7 -4 -5 7 -8 25 -8 22 0 31 -4 28 -12 -2 -7 -13 -13 -24 -13
-12 0 -25 -3 -29 -7 -4 -5 6 -8 23 -8 l30 0 -2 -89 c-2 -67 1 -91 11 -95 17
-6 28 10 14 19 -8 5 -7 11 1 21 7 9 8 14 1 14 -12 0 -10 38 2 58 4 7 3 12 -3
12 -10 0 -9 39 2 57 4 6 3 15 -3 18 -8 5 -8 11 0 20 8 10 8 15 0 20 -8 5 -8
10 0 20 8 10 8 15 0 20 -8 5 -8 10 0 20 8 10 8 15 0 20 -8 5 -8 10 0 20 7 9 8
14 0 17 -16 5 -21 50 -8 66 14 16 -6 34 -28 25 -13 -5 -52 25 -46 36 1 3 -20
7 -48 9 -27 2 -51 -1 -51 -5z"></path>
<path d="M4250 1750 c0 -6 26 -10 63 -10 65 0 87 -11 87 -42 0 -10 5 -18 11
-18 6 0 9 16 7 38 l-3 37 -82 3 c-53 2 -83 -1 -83 -8z"></path>
<path d="M6430 1720 c0 -11 5 -20 10 -20 6 0 10 9 10 20 0 11 -4 20 -10 20 -5
0 -10 -9 -10 -20z"></path>
<path d="M5290 1720 c0 -6 27 -10 60 -10 33 0 60 4 60 10 0 6 -27 10 -60 10
-33 0 -60 -4 -60 -10z"></path>
<path d="M2557 1674 c-13 -13 -7 -24 14 -24 11 0 19 5 17 12 -5 14 -22 21 -31
12z"></path>
<path d="M2620 1669 c0 -8 26 -19 46 -19 27 0 14 18 -16 22 -16 3 -30 1 -30
-3z"></path>
<path d="M4443 1663 c-13 -2 -23 -11 -23 -19 0 -16 16 -19 25 -4 9 15 25 12
25 -5 0 -20 26 -19 34 1 4 10 13 13 25 9 22 -7 53 4 45 16 -5 9 -89 10 -131 2z"></path>
<path d="M5570 1650 c0 -11 5 -20 10 -20 6 0 10 9 10 20 0 11 -4 20 -10 20 -5
0 -10 -9 -10 -20z"></path>
<path d="M6391 1661 c-17 -11 -7 -45 12 -39 13 5 23 48 10 48 -4 0 -14 -4 -22
-9z"></path>
<path d="M4636 1624 c-5 -14 -15 -15 -54 -10 -45 6 -46 6 -24 -10 17 -12 35
-15 62 -10 33 5 41 3 50 -14 10 -19 11 -19 31 1 21 21 39 18 39 -7 0 -10 7
-13 25 -8 15 4 25 2 25 -5 0 -6 -5 -10 -11 -8 -6 1 -14 -4 -16 -10 -3 -8 5
-13 21 -13 25 0 26 3 26 50 0 55 -15 66 -39 28 -12 -19 -14 -20 -23 -5 -8 16
-11 16 -30 2 -23 -16 -48 -5 -48 21 0 19 -27 17 -34 -2z"></path>
<path d="M2552 1598 c1 -65 -2 -78 -17 -78 -21 0 -19 -17 3 -22 17 -5 17 -9
13 -150 -1 -10 -8 -18 -16 -18 -8 0 -15 -4 -15 -10 0 -5 7 -10 15 -10 9 0 15
-9 15 -25 0 -16 -6 -25 -15 -25 -8 0 -15 -4 -15 -10 0 -5 6 -10 14 -10 16 0
24 -31 18 -67 -3 -13 -11 -23 -18 -23 -8 0 -14 -4 -14 -10 0 -5 7 -10 15 -10
9 0 15 -9 15 -25 0 -16 -6 -25 -15 -25 -8 0 -15 -4 -15 -10 0 -5 7 -10 15 -10
15 0 19 -19 15 -72 -2 -37 6 -47 31 -41 16 4 18 8 7 14 -11 7 -10 11 2 19 13
9 13 11 0 21 -12 9 -13 12 -1 16 11 4 11 7 0 13 -10 7 -10 12 0 23 9 12 9 16
-1 20 -10 4 -10 7 1 15 9 6 10 12 2 16 -10 7 -12 96 -1 96 3 0 5 11 5 25 0 14
-2 25 -6 25 -3 0 -5 16 -6 36 -1 20 -5 39 -10 43 -11 8 -10 34 2 43 6 4 10 61
10 133 0 110 -2 125 -17 125 -12 0 -16 -9 -16 -32z"></path>
<path d="M6430 1611 c0 -5 -3 -16 -6 -25 -4 -11 -1 -16 10 -16 10 0 16 9 16
25 0 14 -4 25 -10 25 -5 0 -10 -4 -10 -9z"></path>
<path d="M5280 1580 c0 -5 18 -10 40 -10 22 0 40 5 40 10 0 6 -18 10 -40 10
-22 0 -40 -4 -40 -10z"></path>
<path d="M5375 1580 c-3 -5 3 -10 15 -10 12 0 18 5 15 10 -3 6 -10 10 -15 10
-5 0 -12 -4 -15 -10z"></path>
<path d="M5424 1579 c-3 -5 9 -9 25 -9 17 0 33 0 36 0 3 0 6 3 8 6 3 10 -63
13 -69 3z"></path>
<path d="M5520 1575 c0 -9 5 -15 11 -13 6 2 11 8 11 13 0 5 -5 11 -11 13 -6 2
-11 -4 -11 -13z"></path>
<path d="M2515 1550 c-3 -5 -1 -10 4 -10 6 0 11 5 11 10 0 6 -2 10 -4 10 -3 0
-8 -4 -11 -10z"></path>
<path d="M4530 1551 c0 -10 40 -22 52 -15 18 11 6 24 -22 24 -16 0 -30 -4 -30
-9z"></path>
<path d="M4683 1553 c-26 -10 -11 -23 27 -23 31 0 38 3 34 15 -6 15 -36 19
-61 8z"></path>
<path d="M6254 1545 c-8 -20 4 -35 26 -35 15 0 19 6 18 25 -3 28 -35 35 -44
10z"></path>
<path d="M5282 1541 c-11 -7 -10 -10 3 -15 23 -9 25 -8 25 9 0 17 -9 19 -28 6z"></path>
<path d="M5336 1541 c-4 -5 -2 -12 3 -15 5 -4 12 -2 15 3 4 5 2 12 -3 15 -5 4
-12 2 -15 -3z"></path>
<path d="M6333 1543 c-7 -3 -13 -8 -13 -13 0 -11 57 -18 72 -9 7 4 18 3 25 -2
14 -12 36 -3 31 13 -4 10 -94 19 -115 11z"></path>
<path d="M5378 1528 c9 -9 15 -9 24 0 9 9 7 12 -12 12 -19 0 -21 -3 -12 -12z"></path>
<path d="M5425 1530 c3 -5 10 -10 16 -10 5 0 9 5 9 10 0 6 -7 10 -16 10 -8 0
-12 -4 -9 -10z"></path>
<path d="M5475 1530 c3 -5 10 -10 16 -10 5 0 9 5 9 10 0 6 -7 10 -16 10 -8 0
-12 -4 -9 -10z"></path>
<path d="M5520 1530 c0 -5 7 -10 15 -10 8 0 15 5 15 10 0 6 -7 10 -15 10 -8 0
-15 -4 -15 -10z"></path>
<path d="M650 1521 c0 -11 289 -20 296 -10 2 3 1 9 -3 13 -10 10 -293 7 -293
-3z"></path>
<path d="M2620 1510 c0 -5 4 -10 9 -10 5 0 16 -3 25 -6 11 -4 16 -1 16 10 0
10 -9 16 -25 16 -14 0 -25 -4 -25 -10z"></path>
<path d="M5285 1490 c3 -5 10 -10 16 -10 5 0 9 5 9 10 0 6 -7 10 -16 10 -8 0
-12 -4 -9 -10z"></path>
<path d="M5330 1490 c0 -5 7 -10 15 -10 8 0 15 5 15 10 0 6 -7 10 -15 10 -8 0
-15 -4 -15 -10z"></path>
<path d="M5380 1490 c0 -5 7 -10 15 -10 8 0 15 5 15 10 0 6 -7 10 -15 10 -8 0
-15 -4 -15 -10z"></path>
<path d="M5420 1490 c0 -5 6 -10 14 -10 8 0 18 5 21 10 3 6 -3 10 -14 10 -12
0 -21 -4 -21 -10z"></path>
<path d="M5470 1490 c0 -5 7 -10 15 -10 8 0 15 5 15 10 0 6 -7 10 -15 10 -8 0
-15 -4 -15 -10z"></path>
<path d="M5520 1490 c0 -5 7 -10 15 -10 8 0 15 5 15 10 0 6 -7 10 -15 10 -8 0
-15 -4 -15 -10z"></path>
<path d="M650 1475 c0 -13 23 -15 150 -15 136 0 177 7 134 24 -9 3 -76 6 -150
6 -112 0 -134 -2 -134 -15z"></path>
<path d="M6140 1445 c0 -33 2 -35 35 -35 33 0 35 2 35 35 0 33 -2 35 -35 35
-33 0 -35 -2 -35 -35z"></path>
<path d="M6230 1460 c6 -12 7 -20 1 -20 -5 0 -7 -9 -4 -20 7 -25 68 -29 77 -4
9 23 8 24 -16 25 -17 1 -19 2 -5 6 35 9 19 33 -23 33 -38 0 -40 -2 -30 -20z"></path>
<path d="M6340 1459 c14 -10 19 -19 13 -19 -19 0 -16 -30 3 -37 13 -5 10 -9
-12 -18 l-29 -13 34 -14 33 -15 -33 -7 -34 -7 24 -13 24 -13 -23 -16 -22 -15
21 -7 c27 -8 27 -23 -1 -34 -23 -9 -22 -9 5 -16 l29 -8 -27 -17 c-26 -17 -26
-17 -5 -23 18 -5 20 -9 10 -26 -9 -19 -8 -21 14 -21 13 0 26 7 30 15 3 8 2 15
-2 15 -5 0 -6 114 -2 264 0 22 13 -6 14 -31 1 -24 6 -29 36 -34 l35 -6 -37 -2
c-38 -1 -54 -23 -25 -34 9 -4 9 -8 -1 -15 -8 -5 -14 -13 -14 -17 0 -4 6 -12
14 -16 11 -8 11 -10 0 -18 -11 -6 -10 -11 3 -25 9 -9 12 -16 6 -16 -5 0 -10
-18 -9 -39 l0 -40 78 0 78 0 0 39 c1 32 -3 39 -21 43 -22 4 -22 4 -1 6 21 1
21 5 21 135 l0 135 -126 0 c-125 0 -126 0 -101 -20z m64 -20 c-3 -5 -10 -7
-15 -3 -5 3 -7 10 -3 15 3 5 10 7 15 3 5 -3 7 -10 3 -15z m90 0 c-3 -5 -10 -7
-15 -3 -5 3 -7 10 -3 15 3 5 10 7 15 3 5 -3 7 -10 3 -15z m0 -50 c-3 -5 -10
-7 -15 -3 -5 3 -7 10 -3 15 3 5 10 7 15 3 5 -3 7 -10 3 -15z m-47 5 c-3 -3
-12 -4 -19 -1 -8 3 -5 6 6 6 11 1 17 -2 13 -5z m73 -49 c0 -1 -9 -5 -20 -8
-12 -3 -20 0 -20 8 0 8 8 11 20 8 11 -3 20 -7 20 -8z m-16 -44 c3 -5 -1 -11
-9 -15 -9 -3 -15 0 -15 9 0 16 16 20 24 6z m-41 -8 c-7 -2 -19 -2 -25 0 -7 3
-2 5 12 5 14 0 19 -2 13 -5z m84 1 c-3 -3 -12 -4 -19 -1 -8 3 -5 6 6 6 11 1
17 -2 13 -5z m-37 -45 c0 -5 -7 -9 -15 -9 -8 0 -15 7 -15 15 0 9 6 12 15 9 8
-4 15 -10 15 -15z m-40 3 c0 -4 -9 -8 -20 -9 -11 -1 -20 2 -20 8 0 5 9 9 20 9
11 0 20 -4 20 -8z m80 -8 c0 -2 -7 -4 -15 -4 -8 0 -15 4 -15 10 0 5 7 7 15 4
8 -4 15 -8 15 -10z m-35 -44 c-4 -7 -18 -7 -43 -1 -2 1 -1 5 2 10 3 5 15 7 26
4 11 -3 18 -9 15 -13z m-9 -52 c-18 -10 -39 -2 -31 12 3 4 15 6 26 3 19 -5 19
-7 5 -15z"></path>
<path d="M2645 1460 c3 -5 10 -10 16 -10 5 0 9 5 9 10 0 6 -7 10 -16 10 -8 0
-12 -4 -9 -10z"></path>
<path d="M5280 1450 c0 -5 7 -10 15 -10 8 0 15 5 15 10 0 6 -7 10 -15 10 -8 0
-15 -4 -15 -10z"></path>
<path d="M5330 1450 c0 -5 7 -10 15 -10 8 0 15 5 15 10 0 6 -7 10 -15 10 -8 0
-15 -4 -15 -10z"></path>
<path d="M5380 1450 c0 -5 7 -10 15 -10 8 0 15 5 15 10 0 6 -7 10 -15 10 -8 0
-15 -4 -15 -10z"></path>
<path d="M5425 1450 c-3 -5 3 -10 15 -10 12 0 18 5 15 10 -3 6 -10 10 -15 10
-5 0 -12 -4 -15 -10z"></path>
<path d="M5470 1450 c0 -5 7 -10 15 -10 8 0 15 5 15 10 0 6 -7 10 -15 10 -8 0
-15 -4 -15 -10z"></path>
<path d="M5522 1451 c2 -7 7 -12 11 -12 12 1 9 15 -3 20 -7 2 -11 -2 -8 -8z"></path>
<path d="M650 1430 c0 -10 309 -19 316 -9 2 3 1 9 -3 13 -10 10 -313 7 -313
-4z"></path>
<path d="M2722 1431 c-10 -6 -10 -15 -2 -36 8 -20 8 -30 0 -35 -8 -5 -8 -15 0
-34 16 -42 28 -23 28 44 0 62 -5 74 -26 61z"></path>
<path d="M3443 1385 c0 -33 2 -45 4 -27 2 18 2 45 0 60 -2 15 -4 0 -4 -33z"></path>
<path d="M2650 1420 c19 -13 30 -13 30 0 0 6 -10 10 -22 10 -19 0 -20 -2 -8
-10z"></path>
<path d="M1957 1414 c-11 -11 -8 -64 3 -64 6 0 14 10 19 22 6 18 16 21 65 23
36 1 60 -3 67 -12 17 -20 31 -15 27 10 -3 21 -9 22 -88 25 -47 2 -89 0 -93 -4z"></path>
<path d="M5284 1409 c-3 -5 9 -9 25 -9 17 0 33 0 36 0 3 0 6 3 8 6 3 10 -63
13 -69 3z"></path>
<path d="M5380 1405 c0 -12 114 -14 126 -2 8 8 9 8 -68 11 -37 1 -58 -2 -58
-9z"></path>
<path d="M5520 1400 c0 -5 4 -10 9 -10 6 0 13 5 16 10 3 6 -1 10 -9 10 -9 0
-16 -4 -16 -10z"></path>
<path d="M2620 1390 c0 -5 14 -10 31 -10 17 0 28 4 24 10 -3 6 -17 10 -31 10
-13 0 -24 -4 -24 -10z"></path>
<path d="M6146 1392 c-16 -15 -4 -32 24 -32 17 0 30 -4 30 -9 0 -5 -13 -7 -30
-5 -25 4 -30 2 -30 -14 0 -14 8 -21 30 -24 41 -6 47 1 46 46 -2 37 -4 40 -33
42 -17 1 -34 0 -37 -4z"></path>
<path d="M5288 1358 c9 -9 15 -9 24 0 9 9 7 12 -12 12 -19 0 -21 -3 -12 -12z"></path>
<path d="M5335 1360 c3 -5 10 -10 16 -10 5 0 9 5 9 10 0 6 -7 10 -16 10 -8 0
-12 -4 -9 -10z"></path>
<path d="M5380 1360 c0 -5 7 -10 15 -10 8 0 15 5 15 10 0 6 -7 10 -15 10 -8 0
-15 -4 -15 -10z"></path>
<path d="M5428 1358 c9 -9 15 -9 24 0 9 9 7 12 -12 12 -19 0 -21 -3 -12 -12z"></path>
<path d="M5470 1360 c0 -5 7 -10 15 -10 8 0 15 5 15 10 0 6 -7 10 -15 10 -8 0
-15 -4 -15 -10z"></path>
<path d="M5520 1360 c0 -5 7 -10 15 -10 8 0 15 5 15 10 0 6 -7 10 -15 10 -8 0
-15 -4 -15 -10z"></path>
<path d="M2633 1353 c21 -5 23 -23 2 -23 -8 0 -15 -4 -15 -10 0 -5 12 -10 28
-10 22 0 27 5 28 25 2 22 -2 25 -30 24 -17 -1 -23 -3 -13 -6z"></path>
<path d="M1907 1343 c-2 -5 -3 -23 -2 -42 2 -34 3 -35 61 -48 65 -15 180 -14
177 2 -2 6 -47 12 -100 15 -121 6 -90 20 45 20 72 0 92 3 92 14 0 11 -25 15
-117 18 -81 2 -118 7 -121 16 -4 13 -29 17 -35 5z"></path>
<path d="M5280 1320 c0 -5 6 -10 14 -10 8 0 18 5 21 10 3 6 -3 10 -14 10 -12
0 -21 -4 -21 -10z"></path>
<path d="M5330 1320 c0 -5 7 -10 15 -10 8 0 15 5 15 10 0 6 -7 10 -15 10 -8 0
-15 -4 -15 -10z"></path>
<path d="M5380 1320 c0 -5 7 -10 15 -10 8 0 15 5 15 10 0 6 -7 10 -15 10 -8 0
-15 -4 -15 -10z"></path>
<path d="M5425 1320 c-3 -5 3 -10 14 -10 12 0 21 5 21 10 0 6 -6 10 -14 10 -8
0 -18 -4 -21 -10z"></path>
<path d="M5470 1320 c0 -5 7 -10 15 -10 8 0 15 5 15 10 0 6 -7 10 -15 10 -8 0
-15 -4 -15 -10z"></path>
<path d="M5520 1320 c0 -5 7 -10 15 -10 8 0 15 5 15 10 0 6 -7 10 -15 10 -8 0
-15 -4 -15 -10z"></path>
<path d="M1843 1255 c1 -19 5 -35 9 -35 4 0 8 16 8 35 0 19 -4 35 -9 35 -5 0
-9 -16 -8 -35z"></path>
<path d="M2623 1266 c0 -19 6 -25 27 -28 24 -4 27 -1 27 24 0 24 -4 28 -27 28
-22 0 -27 -5 -27 -24z"></path>
<path d="M5280 1280 c0 -5 9 -10 21 -10 11 0 17 5 14 10 -3 6 -13 10 -21 10
-8 0 -14 -4 -14 -10z"></path>
<path d="M5335 1280 c-3 -5 1 -10 9 -10 9 0 16 5 16 10 0 6 -4 10 -9 10 -6 0
-13 -4 -16 -10z"></path>
<path d="M5380 1278 c0 -4 10 -8 23 -9 12 -1 39 -2 60 -3 21 -2 37 2 37 8 0 7
-24 11 -60 12 -33 1 -60 -3 -60 -8z"></path>
<path d="M5526 1281 c-4 -5 -2 -12 3 -15 5 -4 12 -2 15 3 4 5 2 12 -3 15 -5 4
-12 2 -15 -3z"></path>
<path d="M650 1251 c0 -9 294 -21 313 -13 4 2 5 8 2 13 -8 12 -315 12 -315 0z"></path>
<path d="M2774 1058 l1 -192 73 -3 72 -4 0 120 0 121 -29 0 c-21 0 -30 -6 -34
-21 -4 -14 -11 -20 -20 -16 -12 5 -14 -10 -13 -84 1 -59 -3 -89 -10 -89 -7 0
-10 20 -9 53 1 29 -3 55 -9 59 -8 5 -7 8 2 8 6 0 12 7 12 15 0 8 -5 15 -11 15
-8 0 -8 5 1 15 7 8 9 15 4 15 -9 0 -10 117 -2 126 10 9 -4 54 -17 54 -9 0 -12
-47 -11 -192z"></path>
<path d="M5290 1240 c0 -5 5 -10 10 -10 6 0 10 5 10 10 0 6 -4 10 -10 10 -5 0
-10 -4 -10 -10z"></path>
<path d="M6780 1240 c0 -5 5 -10 10 -10 6 0 10 5 10 10 0 6 -4 10 -10 10 -5 0
-10 -4 -10 -10z"></path>
<path d="M5335 1230 c3 -5 10 -10 16 -10 5 0 9 5 9 10 0 6 -7 10 -16 10 -8 0
-12 -4 -9 -10z"></path>
<path d="M5380 1230 c0 -5 7 -10 15 -10 8 0 15 5 15 10 0 6 -7 10 -15 10 -8 0
-15 -4 -15 -10z"></path>
<path d="M5425 1230 c3 -5 13 -10 21 -10 8 0 14 5 14 10 0 6 -9 10 -21 10 -11
0 -17 -4 -14 -10z"></path>
<path d="M5470 1230 c0 -5 7 -10 15 -10 8 0 15 5 15 10 0 6 -7 10 -15 10 -8 0
-15 -4 -15 -10z"></path>
<path d="M5520 1230 c0 -5 7 -10 15 -10 8 0 15 5 15 10 0 6 -7 10 -15 10 -8 0
-15 -4 -15 -10z"></path>
<path d="M2630 1211 c0 -6 9 -11 20 -11 11 0 20 -4 20 -10 0 -5 -11 -10 -24
-10 -18 0 -23 -5 -23 -25 0 -20 5 -25 23 -25 13 0 24 -4 24 -10 0 -5 -9 -10
-20 -10 -11 0 -20 -4 -20 -10 0 -5 5 -10 12 -10 7 0 4 -6 -5 -12 -11 -9 -15
-21 -11 -35 5 -18 13 -23 38 -22 l31 1 -27 11 c-32 12 -38 32 -8 24 11 -3 23
-1 26 4 3 5 1 9 -5 9 -6 0 -8 12 -5 30 4 17 1 36 -5 44 -7 8 -8 16 -2 18 5 1
11 14 13 28 2 21 -2 26 -24 28 -16 2 -28 -1 -28 -7z"></path>
<path d="M5330 1190 c0 -5 7 -10 15 -10 8 0 15 5 15 10 0 6 -7 10 -15 10 -8 0
-15 -4 -15 -10z"></path>
<path d="M5380 1190 c0 -5 7 -10 15 -10 8 0 15 5 15 10 0 6 -7 10 -15 10 -8 0
-15 -4 -15 -10z"></path>
<path d="M5430 1190 c0 -5 7 -10 15 -10 8 0 15 5 15 10 0 6 -7 10 -15 10 -8 0
-15 -4 -15 -10z"></path>
<path d="M5470 1190 c0 -5 7 -10 15 -10 8 0 15 5 15 10 0 6 -7 10 -15 10 -8 0
-15 -4 -15 -10z"></path>
<path d="M5520 1190 c0 -5 7 -10 15 -10 8 0 15 5 15 10 0 6 -7 10 -15 10 -8 0
-15 -4 -15 -10z"></path>
<path d="M6760 1160 c0 -5 5 -10 10 -10 6 0 10 5 10 10 0 6 -4 10 -10 10 -5 0
-10 -4 -10 -10z"></path>
<path d="M5345 1150 c-3 -5 -1 -10 4 -10 6 0 11 5 11 10 0 6 -2 10 -4 10 -3 0
-8 -4 -11 -10z"></path>
<path d="M5380 1150 c0 -5 7 -10 15 -10 8 0 15 5 15 10 0 6 -7 10 -15 10 -8 0
-15 -4 -15 -10z"></path>
<path d="M5425 1150 c-3 -5 3 -10 15 -10 12 0 18 5 15 10 -3 6 -10 10 -15 10
-5 0 -12 -4 -15 -10z"></path>
<path d="M5475 1150 c-3 -5 1 -10 9 -10 9 0 16 5 16 10 0 6 -4 10 -9 10 -6 0
-13 -4 -16 -10z"></path>
<path d="M5525 1150 c-3 -5 1 -10 10 -10 9 0 13 5 10 10 -3 6 -8 10 -10 10 -2
0 -7 -4 -10 -10z"></path>
<path d="M4930 1098 c0 -19 2 -20 10 -8 13 19 13 30 0 30 -5 0 -10 -10 -10
-22z"></path>
<path d="M5279 1103 c9 -18 11 -25 11 -43 0 -5 16 -10 35 -10 41 0 47 17 8 22
-17 2 -32 12 -38 26 -5 12 -13 22 -18 22 -4 0 -3 -8 2 -17z"></path>
<path d="M5335 1100 c3 -5 10 -10 16 -10 5 0 9 5 9 10 0 6 -7 10 -16 10 -8 0
-12 -4 -9 -10z"></path>
<path d="M5380 1100 c0 -5 7 -10 15 -10 8 0 15 5 15 10 0 6 -7 10 -15 10 -8 0
-15 -4 -15 -10z"></path>
<path d="M5428 1098 c9 -9 15 -9 24 0 9 9 7 12 -12 12 -19 0 -21 -3 -12 -12z"></path>
<path d="M5478 1098 c9 -9 15 -9 24 0 9 9 7 12 -12 12 -19 0 -21 -3 -12 -12z"></path>
<path d="M5520 1100 c0 -5 7 -10 15 -10 8 0 15 5 15 10 0 6 -7 10 -15 10 -8 0
-15 -4 -15 -10z"></path>
<path d="M5380 1060 c0 -5 7 -10 15 -10 8 0 15 5 15 10 0 6 -7 10 -15 10 -8 0
-15 -4 -15 -10z"></path>
<path d="M5430 1060 c0 -5 7 -10 15 -10 8 0 15 5 15 10 0 6 -7 10 -15 10 -8 0
-15 -4 -15 -10z"></path>
<path d="M5470 1060 c0 -5 9 -10 20 -10 11 0 20 5 20 10 0 6 -9 10 -20 10 -11
0 -20 -4 -20 -10z"></path>
<path d="M5520 1060 c0 -5 7 -10 15 -10 8 0 15 5 15 10 0 6 -7 10 -15 10 -8 0
-15 -4 -15 -10z"></path>
<path d="M6690 1056 c0 -9 5 -16 10 -16 6 0 10 4 10 9 0 6 -4 13 -10 16 -5 3
-10 -1 -10 -9z"></path>
<path d="M6964 1055 c-3 -8 -3 -19 1 -25 11 -17 35 -11 35 9 0 23 -29 36 -36
16z"></path>
<path d="M6780 1050 c0 -5 5 -10 10 -10 6 0 10 5 10 10 0 6 -4 10 -10 10 -5 0
-10 -4 -10 -10z"></path>
<path d="M6840 1050 c0 -5 5 -10 10 -10 6 0 10 5 10 10 0 6 -4 10 -10 10 -5 0
-10 -4 -10 -10z"></path>
<path d="M4876 1035 c-9 -25 -7 -63 3 -70 13 -7 18 3 23 44 3 36 -15 54 -26
26z"></path>
<path d="M650 1023 c0 -10 38 -13 155 -13 97 0 155 4 155 10 0 6 -36 10 -87
11 -49 0 -118 1 -156 2 -48 2 -67 -2 -67 -10z"></path>
<path d="M5380 1020 c0 -5 7 -10 15 -10 8 0 15 5 15 10 0 6 -7 10 -15 10 -8 0
-15 -4 -15 -10z"></path>
<path d="M5430 1020 c0 -5 7 -10 15 -10 8 0 15 5 15 10 0 6 -7 10 -15 10 -8 0
-15 -4 -15 -10z"></path>
<path d="M5470 1020 c0 -5 9 -10 21 -10 11 0 17 5 14 10 -3 6 -13 10 -21 10
-8 0 -14 -4 -14 -10z"></path>
<path d="M5520 1020 c0 -5 7 -10 15 -10 8 0 15 5 15 10 0 6 -7 10 -15 10 -8 0
-15 -4 -15 -10z"></path>
<path d="M4920 1001 c0 -6 5 -13 10 -16 6 -3 10 1 10 9 0 9 -4 16 -10 16 -5 0
-10 -4 -10 -9z"></path>
<path d="M2633 975 c0 -20 5 -25 24 -25 22 0 24 2 13 15 -10 12 -10 15 4 15 9
0 16 5 16 10 0 6 -13 10 -29 10 -24 0 -28 -4 -28 -25z"></path>
<path d="M5334 979 c-6 -11 -8 -11 39 -13 21 -2 36 2 34 7 -4 12 -66 17 -73 6z"></path>
<path d="M6690 980 c0 -5 5 -10 11 -10 5 0 7 5 4 10 -3 6 -8 10 -11 10 -2 0
-4 -4 -4 -10z"></path>
<path d="M6780 980 c0 -5 5 -10 11 -10 5 0 7 5 4 10 -3 6 -8 10 -11 10 -2 0
-4 -4 -4 -10z"></path>
<path d="M6836 981 c-4 -5 -2 -12 3 -15 5 -4 12 -2 15 3 4 5 2 12 -3 15 -5 4
-12 2 -15 -3z"></path>
<path d="M6896 981 c-4 -5 -2 -12 3 -15 5 -4 12 -2 15 3 4 5 2 12 -3 15 -5 4
-12 2 -15 -3z"></path>
<path d="M6950 966 c0 -11 9 -16 26 -16 31 0 28 23 -4 28 -15 2 -22 -2 -22
-12z"></path>
<path d="M650 933 c0 -10 38 -13 155 -13 205 0 205 18 0 22 -119 2 -155 0
-155 -9z"></path>
<path d="M6395 920 c3 -5 8 -10 11 -10 2 0 4 5 4 10 0 6 -5 10 -11 10 -5 0 -7
-4 -4 -10z"></path>
<path d="M6690 919 c0 -5 5 -7 10 -4 6 3 10 8 10 11 0 2 -4 4 -10 4 -5 0 -10
-5 -10 -11z"></path>
<path d="M6786 921 c-4 -5 -2 -12 3 -15 5 -4 12 -2 15 3 4 5 2 12 -3 15 -5 4
-12 2 -15 -3z"></path>
<path d="M6946 911 c5 -5 19 -12 32 -16 16 -5 22 -2 22 9 0 11 -10 16 -32 16
-19 0 -28 -4 -22 -9z"></path>
<path d="M6690 870 c0 -5 5 -10 11 -10 5 0 7 5 4 10 -3 6 -8 10 -11 10 -2 0
-4 -4 -4 -10z"></path>
<path d="M6395 860 c3 -5 8 -10 11 -10 2 0 4 5 4 10 0 6 -5 10 -11 10 -5 0 -7
-4 -4 -10z"></path>
<path d="M6785 860 c3 -5 8 -10 11 -10 2 0 4 5 4 10 0 6 -5 10 -11 10 -5 0 -7
-4 -4 -10z"></path>
<path d="M6947 849 c8 -8 16 -8 30 0 16 9 14 10 -11 11 -22 0 -27 -3 -19 -11z"></path>
<path d="M5270 842 c0 -13 35 -42 49 -42 8 0 11 -6 7 -16 -5 -13 -1 -15 21 -9
62 15 57 55 -6 55 -22 0 -43 5 -46 10 -8 12 -25 13 -25 2z"></path>
<path d="M6690 810 c0 -5 5 -10 10 -10 6 0 10 5 10 10 0 6 -4 10 -10 10 -5 0
-10 -4 -10 -10z"></path>
<path d="M6786 811 c-4 -5 -2 -12 3 -15 5 -4 12 -2 15 3 4 5 2 12 -3 15 -5 4
-12 2 -15 -3z"></path>
<path d="M5230 785 c0 -17 4 -23 14 -19 8 3 12 13 9 25 -7 27 -23 24 -23 -6z"></path>
<path d="M6845 800 c3 -5 8 -10 11 -10 2 0 4 5 4 10 0 6 -5 10 -11 10 -5 0 -7
-4 -4 -10z"></path>
<path d="M6953 803 c-24 -9 -13 -23 18 -23 19 0 29 4 27 12 -4 12 -26 18 -45
11z"></path>
<path d="M134 778 c-3 -5 -2 -14 4 -20 12 -12 42 -4 42 11 0 13 -39 21 -46 9z"></path>
<path d="M5280 780 c-8 -5 -11 -12 -8 -16 10 -9 38 3 38 16 0 12 -10 13 -30 0z"></path>
<path d="M5480 780 c0 -5 7 -10 15 -10 8 0 15 5 15 10 0 6 -7 10 -15 10 -8 0
-15 -4 -15 -10z"></path>
<path d="M6600 754 c0 -11 9 -14 37 -12 52 4 56 28 4 28 -30 0 -41 -4 -41 -16z"></path>
<path d="M6846 751 c-4 -5 -2 -12 3 -15 5 -4 12 -2 15 3 4 5 2 12 -3 15 -5 4
-12 2 -15 -3z"></path>
<path d="M6695 740 c3 -5 10 -10 16 -10 5 0 9 5 9 10 0 6 -7 10 -16 10 -8 0
-12 -4 -9 -10z"></path>
<path d="M6730 740 c0 -5 18 -10 40 -10 22 0 40 5 40 10 0 6 -18 10 -40 10
-22 0 -40 -4 -40 -10z"></path>
<path d="M6942 738 c6 -18 28 -21 28 -4 0 9 -7 16 -16 16 -9 0 -14 -5 -12 -12z"></path>
<path d="M6730 700 c0 -5 7 -10 15 -10 8 0 15 5 15 10 0 6 -7 10 -15 10 -8 0
-15 -4 -15 -10z"></path>
<path d="M6780 700 c0 -5 7 -10 15 -10 8 0 15 5 15 10 0 6 -7 10 -15 10 -8 0
-15 -4 -15 -10z"></path>
<path d="M6845 690 c-3 -5 -1 -10 4 -10 6 0 11 5 11 10 0 6 -2 10 -4 10 -3 0
-8 -4 -11 -10z"></path>
<path d="M6775 630 c-4 -7 -3 -16 3 -22 14 -14 45 -2 40 15 -6 16 -34 21 -43
7z"></path>
<path d="M4180 401 c0 -5 12 -11 28 -13 19 -2 28 -9 30 -25 2 -13 7 -23 12
-23 9 0 19 57 12 65 -9 9 -82 5 -82 -4z"></path>
<path d="M4310 385 c0 -27 15 -34 24 -10 4 12 23 15 85 15 44 0 82 -4 85 -9 3
-4 7 -22 8 -40 1 -17 7 -30 13 -28 5 2 10 9 9 15 -1 7 -2 28 -2 47 l-2 35
-110 0 -110 0 0 -25z"></path>
<path d="M4580 374 c0 -21 4 -33 10 -29 6 3 10 14 10 24 0 9 5 22 12 29 9 9 7
12 -10 12 -19 0 -22 -6 -22 -36z"></path>
<path d="M1550 360 c0 -5 5 -10 10 -10 6 0 10 5 10 10 0 6 -4 10 -10 10 -5 0
-10 -4 -10 -10z"></path>
<path d="M4675 360 c3 -5 11 -10 16 -10 6 0 7 5 4 10 -3 6 -11 10 -16 10 -6 0
-7 -4 -4 -10z"></path>
<path d="M4265 303 c4 -16 7 -38 7 -50 -1 -18 4 -23 23 -23 26 0 33 14 14 26
-6 3 -9 22 -7 40 4 30 1 34 -20 34 -22 0 -23 -3 -17 -27z"></path>
<path d="M1509 280 c-9 -5 -46 -8 -83 -7 -65 2 -88 -4 -66 -18 6 -3 35 -7 65
-7 57 -2 63 -6 43 -26 -9 -9 -8 -12 5 -12 9 0 17 -4 17 -10 0 -5 7 -10 16 -10
11 0 15 8 12 28 -3 24 0 27 32 30 60 5 68 12 31 28 -39 16 -50 17 -72 4z"></path>
<path d="M1658 273 c6 -2 18 -2 25 0 6 3 1 5 -13 5 -14 0 -19 -2 -12 -5z"></path>
<path d="M374 230 c11 -44 30 -52 40 -17 9 33 7 49 -4 42 -5 -3 -18 -1 -28 4
-18 9 -18 8 -8 -29z"></path>
<path d="M4180 240 c0 -5 4 -10 9 -10 6 0 13 5 16 10 3 6 -1 10 -9 10 -9 0
-16 -4 -16 -10z"></path>
<path d="M1330 230 c0 -5 7 -10 16 -10 8 0 12 5 9 10 -3 6 -10 10 -16 10 -5 0
-9 -4 -9 -10z"></path>
<path d="M1548 223 c7 -3 16 -2 19 1 4 3 -2 6 -13 5 -11 0 -14 -3 -6 -6z"></path>
<path d="M4398 204 c-14 -13 6 -34 33 -34 16 0 29 -4 29 -10 0 -5 7 -10 15
-10 19 0 19 16 0 24 -8 3 -14 11 -13 18 3 14 -52 24 -64 12z"></path>
<path d="M1369 198 c-7 -24 -5 -38 7 -38 8 0 14 -4 14 -10 0 -5 7 -10 15 -10
19 0 19 16 0 24 -8 3 -12 12 -9 21 4 10 0 15 -10 15 -9 0 -16 -1 -17 -2z"></path>
<path d="M1420 185 c13 -16 50 -21 50 -6 0 5 -10 11 -22 15 -36 9 -41 7 -28
-9z"></path>
<path d="M4080 178 c0 -16 5 -28 10 -28 13 0 13 20 0 40 -8 12 -10 9 -10 -12z"></path>
<path d="M1722 180 c2 -6 7 -11 12 -10 5 1 13 -4 18 -12 7 -9 8 -8 6 7 -2 11
-12 21 -22 23 -11 2 -17 -1 -14 -8z"></path>
<path d="M1287 172 c-2 -4 2 -18 9 -32 8 -14 14 -20 14 -13 0 6 3 18 6 26 5
14 -22 33 -29 19z"></path>
<path d="M735 160 c-3 -5 -1 -10 4 -10 6 0 11 5 11 10 0 6 -2 10 -4 10 -3 0
-8 -4 -11 -10z"></path>
<path d="M387 140 c-3 -11 -3 -20 -1 -20 2 0 8 9 14 20 6 11 7 20 2 20 -6 0
-12 -9 -15 -20z"></path>
<path d="M1520 140 c0 -5 9 -10 21 -10 11 0 17 5 14 10 -3 6 -13 10 -21 10 -8
0 -14 -4 -14 -10z"></path>
<path d="M510 116 c0 -14 5 -28 11 -31 15 -10 18 -4 12 28 -7 34 -23 36 -23 3z"></path>
<path d="M4448 123 c6 -2 18 -2 25 0 6 3 1 5 -13 5 -14 0 -19 -2 -12 -5z"></path>
<path d="M460 90 c-11 -7 -12 -12 -3 -21 6 -6 9 -18 6 -25 -6 -17 46 -39 60
-25 14 14 -2 33 -24 26 -17 -6 -19 -3 -14 18 7 28 -4 40 -25 27z"></path>
<path d="M3188 93 c7 -3 16 -2 19 1 4 3 -2 6 -13 5 -11 0 -14 -3 -6 -6z"></path>
<path d="M1010 71 c0 -6 4 -13 10 -16 6 -3 7 1 4 9 -7 18 -14 21 -14 7z"></path>
<path d="M1508 69 c-7 -5 -48 -9 -90 -9 -42 0 -79 -4 -82 -9 -3 -5 -24 -8 -46
-7 -37 1 -50 -8 -50 -35 0 -5 23 -8 50 -7 33 2 50 7 50 15 0 19 27 16 34 -4 6
-15 8 -15 17 -3 8 11 12 12 16 3 7 -18 21 -16 26 5 4 16 5 16 6 0 0 -10 6 -18
12 -18 5 0 7 5 3 11 -3 6 0 15 7 20 23 14 31 10 24 -11 -6 -19 -2 -20 82 -19
66 0 82 3 64 10 -13 5 -32 20 -42 33 -20 26 -60 38 -81 25z"></path>
<path d="M1655 73 c-26 -6 -44 -23 -24 -23 26 0 59 12 59 21 0 9 -3 10 -35 2z"></path>
<path d="M2173 53 c-19 -24 -23 -25 -39 -12 -20 16 -51 13 -71 -6 -7 -8 -20
-12 -27 -9 -7 3 -16 -2 -20 -11 -5 -15 2 -16 61 -11 102 8 103 9 109 33 4 14
14 23 26 23 10 0 16 5 13 10 -10 17 -29 11 -52 -17z"></path>
<path d="M2272 69 c5 -14 21 -14 26 0 2 6 -4 11 -13 11 -9 0 -15 -5 -13 -11z"></path>
<path d="M1717 64 c-4 -4 -7 -14 -7 -22 0 -10 7 -12 28 -7 33 8 53 25 30 25
-9 0 -23 2 -30 5 -8 3 -17 2 -21 -1z"></path>
<path d="M1946 56 c3 -8 12 -12 20 -9 17 6 9 23 -11 23 -8 0 -12 -6 -9 -14z"></path>
<path d="M1132 38 c-27 -27 -14 -39 41 -36 45 3 52 6 55 26 3 20 -1 22 -40 22
-24 0 -49 -5 -56 -12z"></path>
<path d="M1795 40 c-3 -5 1 -10 9 -10 9 0 16 5 16 10 0 6 -4 10 -9 10 -6 0
-13 -4 -16 -10z"></path>
<path d="M1863 37 c3 -16 30 -37 39 -31 14 9 8 21 -17 32 -19 9 -24 9 -22 -1z"></path>
<path d="M3940 40 c0 -5 11 -10 25 -10 14 0 25 5 25 10 0 6 -11 10 -25 10 -14
0 -25 -4 -25 -10z"></path>
<path d="M3410 30 c0 -5 5 -10 10 -10 6 0 10 5 10 10 0 6 -4 10 -10 10 -5 0
-10 -4 -10 -10z"></path>
<path d="M2266 21 c-3 -5 -15 -7 -26 -4 -11 3 -20 0 -20 -6 0 -6 17 -11 41
-11 27 0 39 4 37 12 -6 16 -25 21 -32 9z"></path>
<path d="M2330 15 c0 -8 7 -15 15 -15 9 0 12 6 9 15 -8 19 -24 19 -24 0z"></path>
<path d="M3535 10 c-4 -6 15 -10 50 -10 35 0 54 4 50 10 -3 5 -26 10 -50 10
-24 0 -47 -4 -50 -10z"></path>
<path d="M1708 3 c7 -3 16 -2 19 1 4 3 -2 6 -13 5 -11 0 -14 -3 -6 -6z"></path>
<path d="M4138 3 c17 -2 47 -2 65 0 17 2 3 4 -33 4 -36 0 -50 -2 -32 -4z"></path>
</g>
</svg>