<svg width="396" height="299" viewBox="0 0 396 299" fill="none" xmlns="http://www.w3.org/2000/svg">
<g filter="url(#filter0_d)">
<path d="M131 234C133.161 247.775 134 260.56 134 274.5C134 276.664 125.263 286.339 127.444 285.778C139.586 282.656 151.393 283 163.833 283C175.183 283 187.771 281.377 198 286.222C201.438 287.851 205.365 288.863 209.5 287.944C213.836 286.981 214.912 276.368 215.222 273.111C215.879 266.218 216.789 256.624 213.778 250C211.83 245.714 209.428 241.687 207.5 237.444C206.621 235.511 207.011 231.524 205 230.222C201.227 227.781 200 219.91 200 215.556C200 205.468 201.779 195.854 204 186C205.894 177.597 209.846 163.339 206.389 154.889C201.769 143.597 197.63 132.221 191.222 121.778C186.089 113.412 181.325 107.715 179.056 97.5C176.766 87.1951 190.775 90.8578 195 93C212.854 102.053 228.17 114 249.056 114C281.538 114 312.875 108.338 345.111 105.333C354.749 104.435 364.561 102.725 374 100.556C380.582 99.043 386.199 97.7151 388.222 90.7778C395.99 64.144 356.738 62.4719 339 60.5556C289.709 55.2304 239.021 57.5368 192.611 76.4444C176.069 83.1838 178.133 50.3959 178 41.6667C177.855 32.1816 174.001 22.3894 166.667 16.0556C157.666 8.28253 146.486 8.51446 136.444 3.77777C123.605 -2.27875 115.111 15.5602 115.111 26.9444C115.111 41.483 126.702 53.9899 135 64.7778C137.617 68.1795 146.962 79.8544 138.111 82C114.119 87.8163 88.9316 82.596 65.2778 90.9444C48.9334 96.7131 32.0643 102.62 17.2222 111.778C11.3144 115.423 10.3525 120.374 8.11111 126.778C4.06464 138.339 12.1354 138.914 21.8889 136.722C32.1584 134.414 41.7521 129.884 52 127.444C62.3101 124.99 72.9481 124.143 83.2222 121.556C96.5131 118.209 109.679 114.197 123 111C130.982 109.084 137.156 108.524 141.5 115.611C148.197 126.538 144.988 145.254 142 156.778C137.264 175.046 136 191.991 136 210.778C136 223.122 133 234.716 133 247" stroke="#3EEBCC" stroke-width="5" stroke-linecap="round" stroke-linejoin="round"/>
</g>
<defs>
<filter id="filter0_d" x="0.542908" y="0.0556793" width="395.184" height="298.737" filterUnits="userSpaceOnUse" color-interpolation-filters="sRGB">
<feFlood flood-opacity="0" result="BackgroundImageFix"/>
<feColorMatrix in="SourceAlpha" type="matrix" values="0 0 0 0 0 0 0 0 0 0 0 0 0 0 0 0 0 0 127 0"/>
<feOffset dy="4"/>
<feGaussianBlur stdDeviation="2"/>
<feColorMatrix type="matrix" values="0 0 0 0 0 0 0 0 0 0 0 0 0 0 0 0 0 0 0.25 0"/>
<feBlend mode="normal" in2="BackgroundImageFix" result="effect1_dropShadow"/>
<feBlend mode="normal" in="SourceGraphic" in2="effect1_dropShadow" result="shape"/>
</filter>
</defs>
</svg>
